<svg width="445" height="250" viewBox="0 0 445 250" fill="none" xmlns="http://www.w3.org/2000/svg">
<path d="M123.34 115V154.75H149.84V184H123.34V219H90.5899V184H5.33984V154.75L84.8399 53H122.84L43.0898 154.75H90.5899V115H123.34Z" fill="black"/>
<path d="M414.34 115V154.75H440.84V184H414.34V219H381.59V184H296.34V154.75L375.84 53H413.84L334.09 154.75H381.59V115H414.34Z" fill="black"/>
<path d="M223.277 49C189.427 49 162 76.3284 162 110.056C162 143.784 189.427 171.112 223.277 171.112C257.127 171.112 284.554 143.784 284.554 110.056C284.554 76.3284 257.127 49 223.277 49ZM223.277 143.128C204.957 143.128 190.112 128.336 190.112 110.082C190.112 91.8284 204.957 77.0365 223.277 77.0365C241.597 77.0365 256.442 91.8284 256.442 110.082C256.442 128.336 241.597 143.128 223.277 143.128Z" fill="black"/>
<path d="M256.442 194.769H190.085V219.396H256.442V194.769Z" fill="black"/>
</svg>
