<svg xmlns="http://www.w3.org/2000/svg" version="1.1" xmlns:xlink="http://www.w3.org/1999/xlink" xmlns:svgjs="http://svgjs.com/svgjs" width="474" height="474"><svg width="474" height="474" viewBox="0 0 474 474" fill="none" xmlns="http://www.w3.org/2000/svg">
<rect width="474" height="474" rx="237" fill="black"></rect>
<path d="M235.057 70.213C168.799 70.213 115.113 123.706 115.113 189.724C115.113 255.743 168.799 309.235 235.057 309.235C301.314 309.235 355 255.743 355 189.724C355 123.706 301.314 70.213 235.057 70.213ZM235.057 254.459C199.197 254.459 170.139 225.506 170.139 189.775C170.139 154.045 199.197 125.092 235.057 125.092C270.916 125.092 299.974 154.045 299.974 189.775C299.974 225.506 270.916 254.459 235.057 254.459Z" fill="white"></path>
<path d="M299.973 355.54H170.086V403.745H299.973V355.54Z" fill="white"></path>
</svg><style>@media (prefers-color-scheme: light) { :root { filter: none; } }
</style></svg>