<svg width="144" height="160" viewBox="0 0 144 160" fill="none" xmlns="http://www.w3.org/2000/svg">
<path d="M24.6954 38.9369C29.2509 40.5582 32.6559 44.5139 32.6559 49.2757C32.6559 55.3158 27.5016 60.1887 20.383 60.1887H0.205811V19.5379H15.7714C17.5113 19.5379 19.1857 19.6584 20.804 19.7696C26.7346 20.1772 31.0469 24.4757 31.0469 29.5802C31.0376 33.5916 28.409 37.1953 24.6954 38.9369ZM16.7348 27.2642H10.5049V35.9724H16.7348C19.1857 35.9724 21.4026 34.0548 21.4026 31.5627C21.4026 29.117 19.1857 27.2642 16.7348 27.2642ZM17.2119 52.5181C20.0276 52.5181 22.3007 50.4244 22.3007 47.8119C22.3007 45.1439 20.0276 43.1058 17.2119 43.1058H10.5049V52.5088H17.2119V52.5181Z" fill="white"/>
<path d="M97.2754 60.1887H86.9763V19.5379H97.2754L110.895 40.4748C111.644 41.6235 112.298 42.8371 112.841 44.097V19.5472H123.196V60.1887H112.841L98.9685 38.9833C98.4915 38.2607 98.0705 37.501 97.6963 36.7228L97.2754 35.8427V60.1887Z" fill="white"/>
<path d="M26.8842 95.0773H10.2991V109.77H0V69.1286H28.9796V78.1889H10.2991V86.0263H26.8842V95.0773Z" fill="white"/>
<path d="M34.9663 93.5117V69.1286H45.2654V93.9841C45.2654 97.9862 48.4365 101.414 52.9266 101.414C57.4166 101.414 60.5877 97.9862 60.5877 93.9841V69.1286H70.8868V93.5117C70.8868 103.146 64.2359 110.641 52.9266 110.641C41.6079 110.641 34.9663 103.146 34.9663 93.5117Z" fill="white"/>
<path d="M77.837 80.0973C77.837 73.5939 82.8696 68.2485 92.5045 68.2485C98.1358 68.2485 102.981 69.9346 107.238 72.8342L103.047 79.6248C99.8757 77.5311 96.2836 76.3731 92.0274 76.3731C89.2773 76.3731 86.761 77.596 86.761 80.088C86.761 86.4154 108.856 82.2373 108.856 97.8009C108.856 104.592 101.372 110.632 92.3922 110.632C86.5832 110.632 80.6526 108.538 76.4058 105.694L80.5404 98.3197C83.6553 100.413 88.9873 101.979 92.8132 101.979C96.4052 101.979 98.9777 100.358 98.9777 97.8009C98.9683 91.5384 77.837 95.837 77.837 80.0973Z" fill="white"/>
<path d="M144 109.77H114.843V69.1286H143.822V77.9573H125.142V84.9794H140.174V93.3449H125.142V101.006H144V109.77Z" fill="white"/>
<path d="M58.3239 0C46.2943 0 36.5471 9.65318 36.5471 21.5668C36.5471 33.4804 46.2943 43.1336 58.3239 43.1336C70.3535 43.1336 80.1007 33.4804 80.1007 21.5668C80.1007 9.65318 70.3535 0 58.3239 0ZM58.3239 33.2488C51.8133 33.2488 46.5375 28.0239 46.5375 21.5761C46.5375 15.1283 51.8133 9.90331 58.3239 9.90331C64.8345 9.90331 70.1103 15.1283 70.1103 21.5761C70.1103 28.0239 64.8345 33.2488 58.3239 33.2488Z" fill="white"/>
<path d="M70.1105 51.4898H46.5283V60.1888H70.1105V51.4898Z" fill="white"/>
<path d="M0 133.82V123.898H1.65571V128.076H6.92218V123.898H8.57789V133.82H6.92218V129.632H1.65571V133.82H0Z" fill="white"/>
<path d="M14.0126 134.088C13.2643 134.088 12.6375 133.949 12.1324 133.681C11.6273 133.412 11.2438 133.051 10.9912 132.597C10.7386 132.152 10.6077 131.661 10.6077 131.124C10.6077 130.605 10.7106 130.151 10.907 129.771C11.1128 129.391 11.3934 129.067 11.7582 128.817C12.1231 128.567 12.5627 128.363 13.0678 128.215C13.5449 128.085 14.0781 127.974 14.6674 127.881C15.2567 127.789 15.8554 127.696 16.4635 127.622C17.0715 127.539 17.6327 127.465 18.1566 127.39L17.5673 127.733C17.586 126.853 17.4082 126.195 17.0341 125.778C16.6599 125.352 16.0144 125.149 15.0977 125.149C14.4897 125.149 13.9565 125.287 13.5075 125.556C13.0491 125.825 12.7311 126.269 12.544 126.881L10.9725 126.408C11.2157 125.538 11.6834 124.852 12.3756 124.361C13.0678 123.861 13.9846 123.62 15.1164 123.62C16.0238 123.62 16.8096 123.777 17.455 124.102C18.1098 124.426 18.5775 124.908 18.8582 125.556C18.9985 125.862 19.092 126.195 19.1294 126.557C19.1668 126.918 19.1856 127.289 19.1856 127.687V133.82H17.7169V131.439L18.063 131.661C17.6889 132.467 17.1557 133.069 16.4822 133.477C15.8087 133.885 14.9855 134.088 14.0126 134.088ZM14.2652 132.727C14.8545 132.727 15.3784 132.625 15.8087 132.412C16.2483 132.198 16.5944 131.921 16.8657 131.578C17.1276 131.235 17.3053 130.855 17.3895 130.438C17.4831 130.133 17.5298 129.79 17.5392 129.41C17.5486 129.03 17.5579 128.743 17.5579 128.539L18.1285 128.789C17.586 128.863 17.0621 128.938 16.5383 129.002C16.0144 129.067 15.528 129.141 15.0603 129.215C14.5926 129.29 14.181 129.382 13.8068 129.484C13.5356 129.567 13.283 129.679 13.0398 129.818C12.8059 129.957 12.6095 130.123 12.4692 130.336C12.3195 130.549 12.254 130.809 12.254 131.124C12.254 131.392 12.3195 131.652 12.4598 131.893C12.6001 132.134 12.8153 132.337 13.1053 132.486C13.4046 132.652 13.7881 132.727 14.2652 132.727Z" fill="white"/>
<path d="M20.8601 136.025V132.467C21.4214 132.467 21.8236 132.282 22.0668 131.921C22.31 131.559 22.5065 130.957 22.6468 130.114C22.7497 129.586 22.8245 129.021 22.89 128.428C22.9555 127.826 23.0022 127.159 23.049 126.418C23.0958 125.677 23.1426 124.843 23.18 123.898H30.0834V132.467H31.0563V136.025H29.4754V133.82H22.4223V136.025H20.8601ZM23.4045 132.467H28.4464V125.241H24.686C24.6673 125.677 24.6392 126.131 24.6112 126.603C24.5831 127.075 24.5457 127.548 24.5083 128.02C24.4709 128.493 24.4241 128.938 24.368 129.354C24.3118 129.771 24.2557 130.151 24.1902 130.485C24.106 130.948 24.0125 131.337 23.9096 131.652C23.7974 131.976 23.6383 132.245 23.4045 132.467Z" fill="white"/>
<path d="M37.2675 134.088C36.2853 134.088 35.4247 133.875 34.6951 133.44C33.9655 133.004 33.3949 132.402 32.9833 131.633C32.5717 130.855 32.3752 129.957 32.3752 128.919C32.3752 127.835 32.581 126.899 32.9739 126.103C33.3762 125.306 33.9374 124.695 34.6577 124.268C35.378 123.833 36.2199 123.62 37.1927 123.62C38.203 123.62 39.0542 123.852 39.7651 124.305C40.4761 124.769 41.0093 125.417 41.3647 126.269C41.7202 127.122 41.8699 128.132 41.8231 129.308H40.1487V128.724C40.13 127.502 39.8774 126.594 39.4003 125.992C38.9232 125.389 38.203 125.084 37.2488 125.084C36.2292 125.084 35.4528 125.408 34.9196 126.056C34.3864 126.705 34.1245 127.641 34.1245 128.845C34.1245 130.012 34.3864 130.92 34.9196 131.569C35.4528 132.208 36.2105 132.532 37.1927 132.532C37.8569 132.532 38.4275 132.384 38.9139 132.078C39.4003 131.782 39.7838 131.346 40.0645 130.781L41.6547 131.318C41.2618 132.198 40.6819 132.875 39.8961 133.356C39.1103 133.857 38.231 134.088 37.2675 134.088ZM33.5632 129.317V128.002H40.9625V129.317H33.5632ZM34.5361 122.091V120.442H36.2012V122.091H34.5361ZM38.1749 122.091V120.442H39.8493V122.091H38.1749Z" fill="white"/>
<path d="M42.3936 133.82L46.4346 128.854L42.5806 123.889H44.4141L48.1371 128.762V123.889H49.6431V128.762L53.3661 123.889H55.1996L51.3456 128.854L55.3867 133.82H53.469L49.6338 128.947V133.82H48.1277V128.947L44.2925 133.82H42.3936Z" fill="white"/>
<path d="M56.874 133.82V123.898H58.5297V128.076H63.7962V123.898H65.4519V133.82H63.7962V129.632H58.5297V133.82H56.874Z" fill="white"/>
<path d="M68.043 133.82L68.0337 123.898H69.6988V127.492H71.2329C71.5228 127.492 71.8222 127.502 72.1215 127.511C72.4209 127.52 72.6828 127.548 72.9073 127.594C73.4311 127.696 73.8801 127.872 74.273 128.122C74.6659 128.363 74.9652 128.697 75.1804 129.114C75.3955 129.53 75.5078 130.049 75.5078 130.67C75.5078 131.531 75.2833 132.208 74.8343 132.708C74.3853 133.208 73.7959 133.542 73.0757 133.709C72.8324 133.764 72.5425 133.801 72.2244 133.81C71.9064 133.829 71.607 133.838 71.317 133.838H68.043V133.82ZM69.6988 132.467H71.3545C71.5415 132.467 71.7473 132.458 71.9718 132.449C72.1964 132.439 72.4021 132.402 72.5799 132.356C72.8979 132.263 73.1785 132.087 73.4311 131.809C73.6837 131.541 73.8053 131.152 73.8053 130.651C73.8053 130.142 73.6837 129.753 73.4405 129.475C73.1973 129.197 72.8792 129.021 72.477 128.938C72.2992 128.891 72.1122 128.863 71.9157 128.854C71.7193 128.845 71.5322 128.836 71.3545 128.836H69.6988V132.467ZM76.649 133.82V123.898H78.3047V133.82H76.649Z" fill="white"/>
<path d="M89.0995 123.898V133.82H87.5V126.51L82.2522 133.82H80.8865V123.898H82.4861V131.105L87.7432 123.898H89.0995ZM85.2175 122.74C84.7498 122.74 84.3289 122.629 83.9453 122.397C83.5618 122.175 83.2531 121.869 83.0286 121.489C82.8041 121.109 82.6825 120.692 82.6825 120.229H84.0202C84.0202 120.554 84.1418 120.831 84.3756 121.063C84.6095 121.295 84.8901 121.415 85.2175 121.415C85.5543 121.415 85.8349 121.295 86.0688 121.063C86.3026 120.831 86.4149 120.554 86.4149 120.229H87.7525C87.7525 120.692 87.6403 121.119 87.4158 121.489C87.1913 121.869 86.8826 122.165 86.4991 122.397C86.1062 122.629 85.6759 122.74 85.2175 122.74Z" fill="white"/>
<path d="M0 155.868V145.946H8.21307V155.868H6.55736V147.503H1.65571V155.868H0Z" fill="white"/>
<path d="M15.0792 156.146C14.0876 156.146 13.227 155.924 12.5067 155.479C11.7865 155.034 11.2346 154.414 10.8417 153.626C10.4488 152.839 10.2617 151.931 10.2617 150.903C10.2617 149.865 10.4582 148.948 10.851 148.16C11.2439 147.373 11.8052 146.762 12.5255 146.326C13.2457 145.891 14.097 145.668 15.0792 145.668C16.0801 145.668 16.9407 145.891 17.6703 146.335C18.3906 146.78 18.9519 147.392 19.3354 148.179C19.7189 148.966 19.9154 149.874 19.9154 150.893C19.9154 151.931 19.7189 152.839 19.3354 153.626C18.9425 154.414 18.3906 155.025 17.661 155.47C16.9313 155.924 16.0707 156.146 15.0792 156.146ZM15.0792 154.59C16.1175 154.59 16.8939 154.247 17.399 153.561C17.9042 152.876 18.1567 151.987 18.1567 150.893C18.1567 149.772 17.9042 148.883 17.3897 148.216C16.8752 147.549 16.1082 147.216 15.0792 147.216C14.3776 147.216 13.807 147.373 13.358 147.688C12.909 148.003 12.5722 148.429 12.3477 148.985C12.1232 149.541 12.011 150.171 12.011 150.893C12.011 152.005 12.2729 152.904 12.7874 153.58C13.3019 154.256 14.0689 154.59 15.0792 154.59Z" fill="white"/>
<path d="M26.1733 156.146C25.163 156.146 24.3024 155.924 23.5915 155.47C22.8806 155.016 22.3474 154.395 21.9732 153.608C21.599 152.82 21.4119 151.922 21.4026 150.903C21.4119 149.865 21.6084 148.957 21.9919 148.17C22.3754 147.382 22.918 146.771 23.6289 146.326C24.3398 145.882 25.2004 145.668 26.2013 145.668C27.2584 145.668 28.1657 145.928 28.9328 146.437C29.6998 146.956 30.205 147.66 30.4669 148.55L28.8299 149.041C28.6241 148.466 28.278 148.022 27.8009 147.697C27.3239 147.382 26.7813 147.216 26.1733 147.216C25.4904 147.216 24.9198 147.373 24.4802 147.688C24.0311 148.003 23.7037 148.438 23.4886 148.994C23.2734 149.55 23.1612 150.18 23.1518 150.903C23.1612 152.005 23.4231 152.894 23.9282 153.571C24.4334 154.247 25.1817 154.59 26.1733 154.59C26.8281 154.59 27.3706 154.442 27.8103 154.145C28.2406 153.849 28.568 153.413 28.7925 152.857L30.4575 153.293C30.1114 154.219 29.5689 154.923 28.8299 155.414C28.1003 155.896 27.2116 156.146 26.1733 156.146Z" fill="white"/>
<path d="M34.8261 155.868V147.438H31.3369V145.946H39.9616V147.438H36.4724V155.868H34.8261Z" fill="white"/>
<path d="M44.2458 156.146C43.4974 156.146 42.8707 156.007 42.3656 155.739C41.8604 155.47 41.4769 155.109 41.2243 154.655C40.9718 154.21 40.8408 153.719 40.8408 153.182C40.8408 152.663 40.9437 152.209 41.1402 151.829C41.346 151.449 41.6266 151.125 41.9914 150.875C42.3562 150.625 42.7959 150.421 43.301 150.273C43.7781 150.143 44.3113 150.032 44.9006 149.939C45.4899 149.847 46.0886 149.754 46.6966 149.68C47.3046 149.596 47.8659 149.522 48.3897 149.448L47.8004 149.791C47.8191 148.911 47.6414 148.253 47.2672 147.836C46.893 147.41 46.2476 147.206 45.3309 147.206C44.7229 147.206 44.1897 147.345 43.7406 147.614C43.2823 147.883 42.9642 148.327 42.7772 148.939L41.2056 148.466C41.4488 147.595 41.9166 146.91 42.6088 146.419C43.301 145.919 44.2177 145.678 45.3496 145.678C46.257 145.678 47.0427 145.835 47.6882 146.159C48.343 146.484 48.8107 146.965 49.0913 147.614C49.2316 147.92 49.3252 148.253 49.3626 148.614C49.4 148.976 49.4187 149.346 49.4187 149.745V155.877H47.9501V153.497L48.2962 153.719C47.922 154.525 47.3888 155.127 46.7153 155.535C46.0418 155.942 45.2186 156.146 44.2458 156.146ZM44.4983 154.775C45.0877 154.775 45.6115 154.673 46.0418 154.46C46.4815 154.247 46.8276 153.969 47.0988 153.626C47.3608 153.284 47.5385 152.904 47.6227 152.487C47.7162 152.181 47.763 151.838 47.7724 151.459C47.7817 151.079 47.7911 150.791 47.7911 150.588L48.3617 150.838C47.8191 150.912 47.2953 150.986 46.7714 151.051C46.2476 151.116 45.7612 151.19 45.2935 151.264C44.8257 151.338 44.4142 151.431 44.04 151.533C43.7687 151.616 43.5161 151.727 43.2729 151.866C43.0391 152.005 42.8426 152.172 42.7023 152.385C42.5527 152.598 42.4872 152.857 42.4872 153.172C42.4872 153.441 42.5527 153.7 42.693 153.941C42.8333 154.182 43.0484 154.386 43.3384 154.534C43.6378 154.701 44.0213 154.775 44.4983 154.775Z" fill="white"/>
<path d="M51.832 155.868V145.946H56.0976C56.3502 145.946 56.6214 145.965 56.9208 145.983C57.2107 146.011 57.482 146.058 57.7252 146.122C58.2678 146.261 58.7074 146.549 59.0535 146.993C59.3997 147.429 59.5774 147.984 59.5774 148.651C59.5774 149.022 59.5213 149.346 59.409 149.624C59.2968 149.902 59.1284 150.143 58.9226 150.338C58.829 150.43 58.7261 150.514 58.6139 150.588C58.5016 150.662 58.3894 150.717 58.2771 150.764C58.4923 150.801 58.7168 150.884 58.9319 151.014C59.2874 151.208 59.5587 151.468 59.7645 151.811C59.9609 152.153 60.0638 152.589 60.0638 153.126C60.0638 153.802 59.8954 154.358 59.568 154.794C59.2406 155.229 58.7916 155.535 58.2117 155.701C57.9684 155.766 57.7065 155.813 57.4165 155.831C57.1266 155.85 56.8459 155.859 56.5747 155.859H51.832V155.868ZM53.4971 150.236H55.9853C56.1631 150.236 56.3408 150.226 56.5372 150.208C56.7243 150.189 56.8927 150.152 57.0424 150.097C57.323 149.995 57.5382 149.819 57.6691 149.578C57.8001 149.337 57.8656 149.068 57.8656 148.781C57.8656 148.466 57.7907 148.179 57.6504 147.938C57.5101 147.697 57.2856 147.531 56.9862 147.438C56.7898 147.364 56.5653 147.327 56.3221 147.317C56.0695 147.299 55.9105 147.299 55.845 147.299H53.4971V150.236ZM53.4971 154.534H56.4811C56.6121 154.534 56.7711 154.525 56.9488 154.497C57.1266 154.469 57.2949 154.442 57.4353 154.404C57.7533 154.312 57.9872 154.145 58.1368 153.886C58.2865 153.636 58.352 153.358 58.352 153.07C58.352 152.681 58.2397 152.357 58.0246 152.116C57.8094 151.875 57.5194 151.718 57.1546 151.653C57.0237 151.616 56.8834 151.597 56.7337 151.588C56.584 151.579 56.4437 151.579 56.3314 151.579H53.4971V154.534Z" fill="white"/>
<path d="M73.1318 157.702V155.868H61.916V145.946H63.5156V154.377H66.9673V145.946H68.5669V154.377H72.0093V145.946H73.6089V154.377H74.7969V157.702H73.1318Z" fill="white"/>
<path d="M84.4692 145.946V155.868H82.8696V148.559L77.6218 155.868H76.2561V145.946H77.8557V153.154L83.1128 145.946H84.4692Z" fill="white"/>
<path d="M87.051 155.868L87.0604 145.946H88.7348V150.727L92.9349 145.946H95.077L90.6524 150.912L95.6008 155.877H93.2903L88.7348 151.097V155.877H87.051V155.868Z" fill="white"/>
<path d="M100.222 155.868L100.231 145.946H101.906V150.727L106.106 145.946H108.248L103.823 150.912L108.772 155.877H106.461L101.906 151.097V155.877H100.222V155.868Z" fill="white"/>
<path d="M113.776 156.146C112.785 156.146 111.924 155.924 111.204 155.479C110.483 155.034 109.932 154.414 109.539 153.626C109.146 152.839 108.959 151.931 108.959 150.903C108.959 149.865 109.155 148.948 109.548 148.16C109.941 147.373 110.502 146.762 111.222 146.326C111.943 145.891 112.794 145.668 113.776 145.668C114.777 145.668 115.638 145.891 116.367 146.335C117.088 146.78 117.649 147.392 118.032 148.179C118.416 148.966 118.612 149.874 118.612 150.893C118.612 151.931 118.416 152.839 118.032 153.626C117.64 154.414 117.088 155.025 116.358 155.47C115.638 155.924 114.777 156.146 113.776 156.146ZM113.776 154.59C114.815 154.59 115.591 154.247 116.096 153.561C116.601 152.876 116.854 151.987 116.854 150.893C116.854 149.772 116.601 148.883 116.087 148.216C115.572 147.549 114.805 147.216 113.776 147.216C113.075 147.216 112.504 147.373 112.055 147.688C111.606 148.003 111.269 148.429 111.045 148.985C110.82 149.541 110.708 150.171 110.708 150.893C110.708 152.005 110.97 152.904 111.484 153.58C112.008 154.256 112.775 154.59 113.776 154.59Z" fill="white"/>
<path d="M125.385 160V156.053C124.412 156.202 123.524 156.1 122.719 155.739C121.915 155.377 121.278 154.784 120.811 153.969C120.334 153.154 120.1 152.135 120.1 150.921C120.1 149.698 120.334 148.679 120.811 147.864C121.288 147.049 121.924 146.447 122.719 146.085C123.524 145.724 124.412 145.613 125.385 145.77V142.75H126.891V145.77C127.864 145.622 128.753 145.724 129.557 146.085C130.362 146.447 130.998 147.04 131.465 147.864C131.942 148.689 132.176 149.708 132.176 150.921C132.176 152.135 131.942 153.154 131.465 153.969C130.988 154.784 130.352 155.377 129.557 155.739C128.753 156.1 127.864 156.211 126.891 156.053V160H125.385ZM125.385 154.553V147.271C124.88 147.188 124.422 147.197 123.982 147.308C123.552 147.419 123.168 147.632 122.841 147.938C122.513 148.244 122.261 148.642 122.074 149.142C121.887 149.643 121.793 150.226 121.793 150.912C121.793 151.588 121.887 152.181 122.074 152.672C122.261 153.172 122.523 153.571 122.85 153.867C123.177 154.173 123.561 154.377 123.991 154.488C124.422 154.599 124.899 154.636 125.385 154.553ZM126.891 154.553C127.377 154.636 127.845 154.618 128.276 154.506C128.706 154.395 129.089 154.191 129.426 153.886C129.763 153.58 130.025 153.182 130.202 152.691C130.39 152.19 130.483 151.607 130.483 150.921C130.483 150.226 130.39 149.633 130.212 149.142C130.025 148.642 129.772 148.244 129.445 147.938C129.117 147.632 128.734 147.419 128.304 147.317C127.864 147.206 127.396 147.197 126.9 147.28V154.553H126.891Z" fill="white"/>
<path d="M138.556 156.146C137.574 156.146 136.713 155.933 135.983 155.498C135.254 155.062 134.683 154.46 134.272 153.691C133.86 152.913 133.664 152.014 133.664 150.977C133.664 149.893 133.86 148.957 134.262 148.16C134.664 147.364 135.226 146.752 135.946 146.326C136.666 145.891 137.508 145.678 138.481 145.678C139.491 145.678 140.343 145.909 141.053 146.363C141.764 146.826 142.298 147.475 142.653 148.327C143.009 149.18 143.158 150.189 143.111 151.366H141.446V150.782C141.428 149.559 141.175 148.651 140.698 148.049C140.212 147.447 139.501 147.141 138.547 147.141C137.527 147.141 136.75 147.466 136.217 148.114C135.684 148.763 135.422 149.698 135.422 150.903C135.422 152.07 135.684 152.978 136.217 153.626C136.75 154.266 137.508 154.59 138.49 154.59C139.155 154.59 139.725 154.442 140.212 154.136C140.698 153.839 141.082 153.404 141.362 152.839L142.952 153.376C142.56 154.256 141.98 154.933 141.194 155.414C140.408 155.905 139.529 156.146 138.556 156.146ZM134.852 151.366V150.05H142.251V151.366H134.852Z" fill="white"/>
</svg>
