<svg width="304" height="305" viewBox="0 0 304 305" fill="none" xmlns="http://www.w3.org/2000/svg">
<path d="M304 152.469C304 112.662 273.497 108.515 239.818 116.071C268.963 97.5476 287.608 73.0059 259.515 44.8575C231.426 16.7127 206.933 35.3835 188.454 64.5794C192.183 47.8847 193.045 31.9783 188.159 20.161C183.227 7.92619 172.227 0 151.998 0C131.748 0 120.748 7.94419 115.826 20.2006C110.959 32.0143 111.824 47.9063 115.55 64.5794C97.0668 35.3835 72.5738 16.7127 44.4847 44.8575C16.3921 73.0059 35.0331 97.5476 64.1819 116.071C30.5031 108.515 0 112.662 0 152.469C0 192.28 30.5067 196.42 64.1891 188.864C35.0367 207.384 16.3885 231.929 44.4847 260.081C72.5738 288.226 97.0632 269.555 115.546 240.359C112.564 253.71 111.415 266.557 113.574 277.212C116.778 293.679 127.771 305 151.948 305C161.367 305 171.383 303.297 178.963 297.308C187.786 290.339 191.04 278.903 191.479 268.079C191.658 263.569 191.41 259.048 190.897 254.567C190.627 252.216 190.282 249.873 189.88 247.541C189.672 246.345 189.449 245.154 189.216 243.966C189.018 242.976 188.989 241.205 188.454 240.359C206.937 269.555 231.426 288.226 259.515 260.081C287.611 231.929 268.963 207.384 239.811 188.864C273.493 196.42 304 192.28 304 152.469ZM241.93 62.4737C275.947 96.5577 227.895 123.929 189.974 139.148C219.561 126.168 251.626 104.682 225.718 78.722C200.815 53.77 180.037 82.4835 166.961 111.075C182.372 73.7078 208.956 29.4335 241.93 62.4737ZM201.649 135.444C204.472 134.263 207.328 133.028 210.192 131.74C222.463 131.477 231.786 136.523 231.786 152.466C231.786 168.675 222.287 173.44 209.725 172.983C207.041 171.781 204.361 170.625 201.713 169.517C210.91 169.207 217.685 164.798 217.685 152.466C217.685 140.213 210.759 135.804 201.649 135.444ZM179.074 226.822C179.027 225.875 179.225 224.089 178.798 223.247C180.407 226.415 182.077 229.546 183.813 232.602C184.236 233.348 184.175 234.892 184.29 235.748C184.438 236.821 184.567 237.897 184.678 238.974C184.89 241.058 185.03 243.145 185.077 245.24C185.16 249.103 184.933 252.994 184.165 256.784C183.737 258.901 183.123 260.974 182.307 262.95H182.304C182.289 262.99 182.271 263.026 182.257 263.065C180.461 267.37 177.702 271.2 173.811 273.986C167.733 278.338 159.815 279.944 152.12 279.872C148.887 279.843 145.697 279.515 142.694 278.975C135.405 277.661 128.572 274.217 124.33 267.968C120.241 261.942 118.98 254.448 118.916 247.292C118.894 244.898 119.006 242.501 119.218 240.115C119.329 238.873 119.465 237.631 119.627 236.393C119.76 235.363 119.685 233.499 120.191 232.602C121.926 229.546 123.597 226.415 125.206 223.247C124.836 223.974 125.005 225.504 124.955 226.321C124.894 227.358 124.861 228.398 124.854 229.438C124.847 231.415 124.944 233.398 125.192 235.36C125.641 238.909 126.589 242.44 128.346 245.575C132.226 252.508 139.529 255.747 147.166 256.529C155.652 257.396 165.653 256.435 172.098 250.215C177.397 245.1 179.042 237.527 179.139 230.407C179.157 229.212 179.132 228.017 179.074 226.822ZM172.759 213.636C172.705 214.619 172.608 215.602 172.461 216.574C172.188 218.391 171.735 220.195 171.027 221.894C169.662 225.177 167.32 227.916 164.205 229.647C160.509 231.706 156.226 232.408 151.995 232.354C150.515 232.332 149.038 232.221 147.594 232.041C143.646 231.548 139.709 230.209 136.752 227.451C134.643 225.483 133.203 222.927 132.348 220.188C131.888 218.715 131.59 217.193 131.41 215.659C131.313 214.828 131.248 213.993 131.213 213.158C131.187 212.528 130.932 211.25 131.191 210.678C132.477 207.809 133.709 204.944 134.888 202.114C134.615 202.766 135.049 204.321 135.157 205.016C135.301 205.966 135.502 206.909 135.775 207.83C136.292 209.565 137.072 211.228 138.178 212.665C140.697 215.929 144.598 217.502 148.596 217.977C157.168 218.996 166.077 216.26 168.415 207.128C168.836 205.491 169.041 203.799 169.109 202.107C170.287 204.936 171.519 207.798 172.805 210.67C173.114 211.358 172.802 212.888 172.759 213.636ZM105.52 198.925C121.254 214.691 134.701 196.578 142.971 178.523C142.917 178.667 142.866 178.814 142.812 178.962C133.03 202.294 116.128 229.539 95.5472 208.917C74.7292 188.058 102.793 170.967 126.251 161.223C108.11 169.492 89.6772 183.055 105.52 198.925ZM177.749 161.223C201.207 170.971 229.271 188.058 208.453 208.917C187.872 229.539 170.97 202.294 161.188 178.962C161.134 178.814 161.083 178.67 161.03 178.523C169.299 196.578 182.746 214.691 198.48 198.925C214.323 183.055 195.89 169.492 177.749 161.223ZM176.29 159.895C176.283 159.917 175.845 161.27 175.766 161.479C187.7 167.717 197.589 176.77 186.977 187.403C176.279 198.122 167.183 187.961 160.954 175.87C160.753 175.946 159.445 176.385 159.424 176.388C160.99 180.985 162.793 186.035 164.816 191.337C165.182 192.298 164.159 194.656 163.771 195.552C163.217 196.834 162.427 198.004 161.392 198.943C157.707 202.298 151.082 202.575 146.52 201.132C142.766 199.944 140.326 197.014 139.479 193.205C139.385 192.777 139.022 191.748 139.177 191.337C141.203 186.032 143.003 180.985 144.569 176.388C144.548 176.381 143.24 175.946 143.039 175.87C136.81 187.961 127.714 198.122 117.015 187.403C106.403 176.77 116.293 167.717 128.227 161.479C128.152 161.27 127.71 159.917 127.703 159.895C123.263 161.418 118.413 163.156 113.322 165.104C106.932 164.589 102.574 161.285 102.574 152.466C102.574 143.87 106.949 140.393 113.092 139.741C118.197 141.696 123.061 143.445 127.516 144.975C127.53 144.936 128.051 143.593 128.134 143.409C116.243 137.171 106.432 128.14 117.015 117.536C127.681 106.849 136.756 116.917 142.985 128.957C142.992 128.957 142.999 128.954 143.003 128.95C143.157 128.878 144.451 128.352 144.497 128.338C142.945 123.795 141.171 118.821 139.177 113.598C138.811 112.64 139.827 110.301 140.212 109.408C140.772 108.101 141.58 106.91 142.636 105.956C146.347 102.612 152.85 102.357 157.43 103.789C161.206 104.97 163.663 107.9 164.511 111.726C164.604 112.155 164.97 113.188 164.812 113.598C162.819 118.821 161.04 123.795 159.492 128.338C159.539 128.356 160.832 128.878 160.986 128.95C160.994 128.954 161.001 128.954 161.004 128.957C167.234 116.917 176.304 106.849 186.974 117.536C197.557 128.14 187.746 137.171 175.855 143.409C175.938 143.597 176.459 144.936 176.473 144.975C180.928 143.445 185.792 141.7 190.897 139.741C197.04 140.393 201.415 143.87 201.415 152.466C201.415 161.285 197.058 164.585 190.667 165.104C185.576 163.16 180.727 161.418 176.29 159.895ZM134.873 102.742C134.686 102.544 134.593 102.213 134.489 101.964C134.36 101.655 134.245 101.338 134.126 101.021C133.875 100.38 133.594 99.7469 133.321 99.1134C132.772 97.8356 132.215 96.5577 131.651 95.2871C131.417 94.7615 131.123 94.2612 131.065 93.6781C131.001 93.0194 131.134 92.3463 131.195 91.6875C131.744 85.6727 133.314 79.6615 138.581 76.0475C142.435 73.4019 147.382 72.4444 151.998 72.4228C152.084 72.4228 152.167 72.4228 152.253 72.4228C156.6 72.4336 161.119 73.3299 164.848 75.6552C168.739 78.0813 171.113 82.0696 172.112 86.4898C172.428 87.8972 172.622 89.3298 172.723 90.7661C172.773 91.486 172.834 92.2059 172.892 92.9258C172.942 93.5737 172.849 94.1316 172.593 94.7292C172.019 96.0718 171.412 97.4 170.833 98.7426C170.528 99.4554 170.222 100.168 169.921 100.881C169.784 101.201 169.648 101.521 169.522 101.845C169.411 102.13 169.328 102.515 169.12 102.742C169.023 102.63 169.066 102.439 169.066 102.299C169.066 102.094 169.055 101.896 169.037 101.691C168.997 101.19 168.944 100.69 168.875 100.19C168.746 99.2646 168.566 98.3467 168.319 97.4504C167.851 95.755 167.14 94.1136 166.116 92.681C164.299 90.1361 161.565 88.4192 158.583 87.5769C154.912 86.5402 150.741 86.4826 147.005 87.1989C143.865 87.8036 140.833 89.2254 138.685 91.6515C137.388 93.1166 136.475 94.8875 135.879 96.7449C135.556 97.7564 135.322 98.7966 135.161 99.8477C135.082 100.373 135.017 100.902 134.97 101.435C134.949 101.68 134.927 101.925 134.927 102.169C134.934 102.346 134.992 102.605 134.873 102.742ZM125.202 81.6916C123.593 78.524 121.923 75.3924 120.187 72.3364C119.976 71.9621 120.001 71.1917 119.936 70.7598C119.853 70.2163 119.774 69.6727 119.699 69.1292C119.552 68.0565 119.422 66.9839 119.315 65.9076C119.103 63.8271 118.966 61.7393 118.919 59.6516C118.837 55.7929 119.07 51.909 119.839 48.1259C120.529 44.7207 121.675 41.3767 123.435 38.3747C125.149 35.4591 127.441 32.9178 130.192 30.9489C133.296 28.7279 136.889 27.2773 140.589 26.4026C146.362 25.0384 152.379 24.88 158.26 25.528C162.387 25.9851 166.504 26.9678 170.24 28.8215C173.362 30.3693 176.157 32.5291 178.37 35.2287C182.922 40.7936 184.65 48.1115 185.012 55.1558C185.224 59.2953 184.991 63.4491 184.499 67.5634C184.402 68.3661 184.298 69.1724 184.179 69.9715C184.086 70.6194 184.129 71.7785 183.809 72.34C182.074 75.396 180.403 78.5276 178.794 81.6952C180.716 63.118 175.115 48.1835 152.117 48.1835C152.077 48.1835 152.038 48.1835 151.998 48.1835C151.959 48.1835 151.919 48.1835 151.88 48.1835C128.885 48.1799 123.281 63.118 125.202 81.6916ZM198.48 106.014C184.621 92.1267 172.576 104.524 164.255 120.016C174.221 98.4115 189.654 77.1886 208.453 96.025C228.782 116.395 202.5 133.165 179.412 143.021C196.997 134.688 213.852 121.416 198.48 106.014ZM139.745 120.012C131.425 104.52 119.379 92.1231 105.52 106.01C90.1478 121.413 107.003 134.684 124.588 143.013C101.5 133.161 75.2178 116.388 95.5472 96.0178C114.346 77.185 129.779 98.4079 139.745 120.012ZM62.0696 62.4737C95.0442 29.4335 121.632 73.7078 137.043 111.075C123.963 82.4835 103.185 53.77 78.2857 78.722C52.3773 104.682 84.4431 126.168 114.03 139.148C76.1051 123.929 28.0495 96.5613 62.0696 62.4737ZM102.287 169.52C99.6389 170.629 96.959 171.785 94.2755 172.987C81.7128 173.444 72.2145 168.678 72.2145 152.469C72.2145 136.523 81.5368 131.477 93.8084 131.743C96.6716 133.032 99.5276 134.267 102.351 135.447C93.2409 135.807 86.3147 140.217 86.3147 152.473C86.3147 164.801 93.09 169.211 102.287 169.52ZM24.8666 152.469C24.8666 121.809 46.5037 116.442 71.9235 120.718C74.9735 122.453 78.0989 124.13 81.2602 125.739C62.7126 123.806 47.7969 129.418 47.7969 152.466C47.7969 175.517 62.7126 181.125 81.2602 179.192C78.0989 180.805 74.9735 182.479 71.9199 184.217C46.5001 188.497 24.8666 183.13 24.8666 152.469ZM62.0696 242.465C28.5632 208.892 74.6645 181.896 112.291 166.562C83.2109 179.614 52.8838 200.764 78.2857 226.217C103.346 251.327 124.229 222.088 137.294 193.317C121.915 230.795 95.2203 275.682 62.0696 242.465ZM241.93 242.465C208.78 275.682 182.081 230.795 166.709 193.321C179.771 222.088 200.657 251.331 225.718 226.22C251.12 200.768 220.793 179.617 191.712 166.565C229.339 181.896 275.437 208.892 241.93 242.465ZM232.08 184.221C229.027 182.482 225.905 180.809 222.74 179.196C241.287 181.129 256.203 175.517 256.203 152.469C256.203 129.418 241.287 123.81 222.74 125.743C225.901 124.13 229.027 122.456 232.076 120.721C257.5 116.445 279.133 121.812 279.133 152.473C279.133 183.13 257.5 188.497 232.08 184.221Z" fill="#F2F2F2"/>
</svg>
