<svg width="72" height="34" viewBox="0 0 72 34" fill="none" xmlns="http://www.w3.org/2000/svg">
<rect x="38" width="33.0233" height="33.0233" rx="16.5116" fill="black"/>
<rect width="33.0233" height="33.0233" rx="16.5116" fill="black"/>
<path fill-rule="evenodd" clip-rule="evenodd" d="M35.5 11.9251C33.0312 11.9251 30.6644 8.25586 30.6644 8.25586V16.5117H30.6645V24.7675C30.6645 24.7675 33.0312 21.0982 35.5 21.0982C37.9688 21.0982 40.3355 24.7675 40.3355 24.7675V16.5117H40.3355V8.25586C40.3355 8.25586 37.9687 11.9251 35.5 11.9251Z" fill="black"/>
<path d="M17.9 17.94C18.08 17.94 18.5 17.94 18.96 17.86C21.3 17.5 22.52 15.82 22.52 13.52C22.52 11.24 21.28 9.44 18.96 9.08C18.5 9 18.08 9 17.9 9H14.5C13.3954 9 12.5 9.89543 12.5 11V16.38H11.78C11.3492 16.38 11 16.7292 11 17.16C11 17.5908 11.3492 17.94 11.78 17.94H12.5V19.64H11.74C11.3313 19.64 11 19.9713 11 20.38C11 20.7887 11.3313 21.12 11.74 21.12H12.5V22.51C12.5 23.0015 12.8985 23.4 13.39 23.4C13.8815 23.4 14.28 23.0015 14.28 22.51V21.12H18.26C18.6687 21.12 19 20.7887 19 20.38C19 19.9713 18.6687 19.64 18.26 19.64H14.28V17.94H17.9ZM14.28 11.68C14.28 11.1277 14.7277 10.68 15.28 10.68H17.84C18.02 10.68 18.4 10.7 18.74 10.78C20.12 11.08 20.7 12.34 20.7 13.56C20.7 14.86 20.06 15.96 18.74 16.28C18.38 16.36 18.06 16.38 17.84 16.38H14.28V11.68Z" fill="white"/>
<path d="M51.1301 20.7625L53.4551 22.5625C53.7551 22.8625 54.4301 23.0125 54.8801 23.0125H57.7301C58.6301 23.0125 59.6051 22.3375 59.8301 21.4375L61.6301 15.9625C62.0051 14.9125 61.3301 14.0125 60.2051 14.0125H57.2051C56.7551 14.0125 56.3801 13.6375 56.4551 13.1125L56.8301 10.7125C56.9801 10.0375 56.5301 9.28748 55.8551 9.06248C55.2551 8.83748 54.5051 9.13748 54.2051 9.58748L51.1301 14.1625" stroke="white" stroke-width="1.5" stroke-miterlimit="10"/>
<path d="M47.3053 20.7624V13.4124C47.3053 12.3624 47.7553 11.9874 48.8053 11.9874H49.5553C50.6053 11.9874 51.0553 12.3624 51.0553 13.4124V20.7624C51.0553 21.8124 50.6053 22.1874 49.5553 22.1874H48.8053C47.7553 22.1874 47.3053 21.8124 47.3053 20.7624Z" stroke="white" stroke-width="1.5" stroke-linecap="round" stroke-linejoin="round"/>
</svg>
