<svg width="910" height="305" viewBox="0 0 910 305" fill="none" xmlns="http://www.w3.org/2000/svg">
<rect x="1" y="1" width="908" height="303" rx="11" fill="white"/>
<rect width="290" height="305" rx="12" fill="#EEF1F3"/>
<path d="M337.8 62.36C336.584 62.36 335.52 62.184 334.608 61.832C333.704 61.472 332.944 61.012 332.328 60.452C331.72 59.884 331.252 59.288 330.924 58.664L333.396 56.984C333.588 57.424 333.868 57.848 334.236 58.256C334.604 58.656 335.088 58.988 335.688 59.252C336.288 59.508 337.032 59.636 337.92 59.636C338.776 59.636 339.476 59.508 340.02 59.252C340.564 58.996 340.964 58.66 341.22 58.244C341.476 57.828 341.604 57.376 341.604 56.888C341.604 56.28 341.436 55.812 341.1 55.484C340.764 55.148 340.324 54.916 339.78 54.788C339.236 54.652 338.656 54.576 338.04 54.56C337.48 54.544 337.076 54.532 336.828 54.524C336.58 54.516 336.416 54.512 336.336 54.512C336.256 54.512 336.18 54.512 336.108 54.512V51.776C336.196 51.776 336.344 51.776 336.552 51.776C336.768 51.776 336.988 51.776 337.212 51.776C337.444 51.768 337.632 51.76 337.776 51.752C338.688 51.712 339.436 51.5 340.02 51.116C340.612 50.732 340.908 50.164 340.908 49.412C340.908 48.684 340.632 48.112 340.08 47.696C339.536 47.28 338.812 47.072 337.908 47.072C337.06 47.072 336.312 47.26 335.664 47.636C335.024 48.012 334.54 48.456 334.212 48.968L332.184 46.904C332.768 46.192 333.56 45.592 334.56 45.104C335.568 44.608 336.712 44.36 337.992 44.36C338.744 44.36 339.476 44.46 340.188 44.66C340.9 44.852 341.54 45.148 342.108 45.548C342.676 45.948 343.128 46.46 343.464 47.084C343.8 47.708 343.968 48.452 343.968 49.316C343.968 50.108 343.816 50.84 343.512 51.512C343.216 52.176 342.8 52.72 342.264 53.144C343.024 53.448 343.612 53.912 344.028 54.536C344.452 55.16 344.664 55.948 344.664 56.9C344.664 58.02 344.36 58.988 343.752 59.804C343.144 60.62 342.32 61.252 341.28 61.7C340.248 62.14 339.088 62.36 337.8 62.36ZM346.306 64.88V59.732C347.01 59.732 347.51 59.492 347.806 59.012C348.102 58.532 348.338 57.7 348.514 56.516C348.626 55.812 348.718 55.068 348.79 54.284C348.862 53.5 348.922 52.672 348.97 51.8C349.026 50.928 349.074 50.008 349.114 49.04H358.762V59.732H360.07V64.88H357.334V62H349.03V64.88H346.306ZM350.182 59.732H355.882V51.308H351.646C351.622 51.788 351.594 52.28 351.562 52.784C351.53 53.28 351.494 53.776 351.454 54.272C351.414 54.768 351.37 55.244 351.322 55.7C351.282 56.148 351.234 56.564 351.178 56.948C351.09 57.62 350.982 58.172 350.854 58.604C350.726 59.036 350.502 59.412 350.182 59.732ZM368.369 62.36C367.057 62.36 365.905 62.076 364.913 61.508C363.921 60.94 363.145 60.152 362.585 59.144C362.033 58.136 361.757 56.976 361.757 55.664C361.757 54.248 362.029 53.02 362.573 51.98C363.117 50.932 363.873 50.12 364.841 49.544C365.809 48.968 366.929 48.68 368.201 48.68C369.545 48.68 370.685 48.996 371.621 49.628C372.565 50.252 373.265 51.136 373.721 52.28C374.177 53.424 374.349 54.772 374.237 56.324H371.369V55.268C371.361 53.86 371.113 52.832 370.625 52.184C370.137 51.536 369.369 51.212 368.321 51.212C367.137 51.212 366.257 51.58 365.681 52.316C365.105 53.044 364.817 54.112 364.817 55.52C364.817 56.832 365.105 57.848 365.681 58.568C366.257 59.288 367.097 59.648 368.201 59.648C368.913 59.648 369.525 59.492 370.037 59.18C370.557 58.86 370.957 58.4 371.237 57.8L374.093 58.664C373.597 59.832 372.829 60.74 371.789 61.388C370.757 62.036 369.617 62.36 368.369 62.36ZM363.905 56.324V54.14H372.821V56.324H363.905ZM382.542 62.36C381.206 62.36 380.066 62.064 379.122 61.472C378.178 60.872 377.454 60.056 376.95 59.024C376.454 57.992 376.202 56.824 376.194 55.52C376.202 54.192 376.462 53.016 376.974 51.992C377.494 50.96 378.23 50.152 379.182 49.568C380.134 48.976 381.266 48.68 382.578 48.68C384.05 48.68 385.294 49.052 386.31 49.796C387.334 50.532 388.002 51.54 388.314 52.82L385.434 53.6C385.21 52.904 384.838 52.364 384.318 51.98C383.798 51.588 383.206 51.392 382.542 51.392C381.79 51.392 381.17 51.572 380.682 51.932C380.194 52.284 379.834 52.772 379.602 53.396C379.37 54.02 379.254 54.728 379.254 55.52C379.254 56.752 379.53 57.748 380.082 58.508C380.634 59.268 381.454 59.648 382.542 59.648C383.31 59.648 383.914 59.472 384.354 59.12C384.802 58.768 385.138 58.26 385.362 57.596L388.314 58.256C387.914 59.576 387.214 60.592 386.214 61.304C385.214 62.008 383.99 62.36 382.542 62.36ZM390.707 62L390.695 49.04H393.587V53.36H395.915C396.275 53.36 396.679 53.368 397.127 53.384C397.583 53.4 397.963 53.436 398.267 53.492C398.995 53.652 399.615 53.908 400.127 54.26C400.647 54.612 401.043 55.072 401.315 55.64C401.587 56.208 401.723 56.892 401.723 57.692C401.723 58.836 401.427 59.752 400.835 60.44C400.251 61.12 399.427 61.584 398.363 61.832C398.043 61.904 397.651 61.952 397.187 61.976C396.731 61.992 396.319 62 395.951 62H390.707ZM393.587 59.732H396.203C396.379 59.732 396.575 59.724 396.791 59.708C397.007 59.692 397.215 59.656 397.415 59.6C397.775 59.504 398.091 59.288 398.363 58.952C398.643 58.608 398.783 58.188 398.783 57.692C398.783 57.172 398.643 56.744 398.363 56.408C398.083 56.072 397.739 55.852 397.331 55.748C397.147 55.7 396.955 55.668 396.755 55.652C396.555 55.636 396.371 55.628 396.203 55.628H393.587V59.732ZM409.14 62V49.04H411.516L416.16 57.992L420.816 49.04H423.18V62H420.42V54.86L416.736 62H415.596L411.912 54.86V62H409.14ZM432.256 62.36C430.96 62.36 429.828 62.068 428.86 61.484C427.892 60.9 427.14 60.096 426.604 59.072C426.076 58.04 425.812 56.856 425.812 55.52C425.812 54.16 426.084 52.968 426.628 51.944C427.172 50.92 427.928 50.12 428.896 49.544C429.864 48.968 430.984 48.68 432.256 48.68C433.56 48.68 434.696 48.972 435.664 49.556C436.632 50.14 437.384 50.948 437.92 51.98C438.456 53.004 438.724 54.184 438.724 55.52C438.724 56.864 438.452 58.052 437.908 59.084C437.372 60.108 436.62 60.912 435.652 61.496C434.684 62.072 433.552 62.36 432.256 62.36ZM432.256 59.648C433.408 59.648 434.264 59.264 434.824 58.496C435.384 57.728 435.664 56.736 435.664 55.52C435.664 54.264 435.38 53.264 434.812 52.52C434.244 51.768 433.392 51.392 432.256 51.392C431.48 51.392 430.84 51.568 430.336 51.92C429.84 52.264 429.472 52.748 429.232 53.372C428.992 53.988 428.872 54.704 428.872 55.52C428.872 56.776 429.156 57.78 429.724 58.532C430.3 59.276 431.144 59.648 432.256 59.648ZM441.368 62V49.04H450.608V51.752H444.26V62H441.368ZM463.091 62.384C461.859 62.368 460.811 62.092 459.947 61.556C459.083 61.02 458.407 60.264 457.919 59.288C457.431 58.312 457.135 57.16 457.031 55.832C456.983 55.152 456.979 54.392 457.019 53.552C457.059 52.712 457.147 51.892 457.283 51.092C457.419 50.292 457.607 49.612 457.847 49.052C458.095 48.492 458.419 47.976 458.819 47.504C459.219 47.024 459.651 46.624 460.115 46.304C460.643 45.936 461.215 45.652 461.831 45.452C462.455 45.252 463.107 45.1 463.787 44.996C464.467 44.884 465.167 44.784 465.887 44.696C466.607 44.608 467.319 44.496 468.023 44.36L468.287 46.916C467.839 47.028 467.319 47.116 466.727 47.18C466.143 47.236 465.535 47.3 464.903 47.372C464.279 47.444 463.683 47.548 463.115 47.684C462.547 47.82 462.055 48.02 461.639 48.284C461.063 48.636 460.623 49.14 460.319 49.796C460.015 50.452 459.835 51.144 459.779 51.872C460.275 51.136 460.891 50.62 461.627 50.324C462.371 50.02 463.123 49.868 463.883 49.868C465.035 49.868 466.023 50.14 466.847 50.684C467.679 51.228 468.315 51.968 468.755 52.904C469.203 53.832 469.427 54.868 469.427 56.012C469.427 57.292 469.159 58.412 468.623 59.372C468.087 60.332 467.343 61.076 466.391 61.604C465.439 62.132 464.339 62.392 463.091 62.384ZM463.235 59.672C464.275 59.672 465.059 59.352 465.587 58.712C466.123 58.064 466.391 57.204 466.391 56.132C466.391 55.036 466.115 54.172 465.563 53.54C465.019 52.908 464.243 52.592 463.235 52.592C462.211 52.592 461.431 52.908 460.895 53.54C460.359 54.172 460.091 55.036 460.091 56.132C460.091 57.252 460.363 58.124 460.907 58.748C461.451 59.364 462.227 59.672 463.235 59.672ZM472.059 62L472.047 49.04H474.939V53.36H476.391C476.751 53.36 477.155 53.368 477.603 53.384C478.059 53.4 478.439 53.436 478.743 53.492C479.471 53.652 480.091 53.908 480.603 54.26C481.123 54.612 481.519 55.072 481.791 55.64C482.063 56.208 482.199 56.892 482.199 57.692C482.199 58.836 481.903 59.752 481.311 60.44C480.719 61.12 479.891 61.584 478.827 61.832C478.515 61.904 478.127 61.952 477.663 61.976C477.199 61.992 476.787 62 476.427 62H472.059ZM474.939 59.732H476.679C476.855 59.732 477.051 59.724 477.267 59.708C477.483 59.692 477.687 59.656 477.879 59.6C478.239 59.504 478.559 59.288 478.839 58.952C479.119 58.608 479.259 58.188 479.259 57.692C479.259 57.172 479.119 56.744 478.839 56.408C478.559 56.072 478.215 55.852 477.807 55.748C477.615 55.7 477.419 55.668 477.219 55.652C477.027 55.636 476.847 55.628 476.679 55.628H474.939V59.732ZM483.555 62V49.04H486.447V62H483.555ZM500.006 62.384C498.774 62.368 497.726 62.092 496.862 61.556C495.998 61.02 495.322 60.264 494.834 59.288C494.346 58.312 494.05 57.16 493.946 55.832C493.898 55.152 493.894 54.392 493.934 53.552C493.974 52.712 494.062 51.892 494.198 51.092C494.334 50.292 494.522 49.612 494.762 49.052C495.01 48.492 495.334 47.976 495.734 47.504C496.134 47.024 496.566 46.624 497.03 46.304C497.558 45.936 498.13 45.652 498.746 45.452C499.37 45.252 500.022 45.1 500.702 44.996C501.382 44.884 502.082 44.784 502.802 44.696C503.522 44.608 504.234 44.496 504.938 44.36L505.202 46.916C504.754 47.028 504.234 47.116 503.642 47.18C503.058 47.236 502.45 47.3 501.818 47.372C501.194 47.444 500.598 47.548 500.03 47.684C499.462 47.82 498.97 48.02 498.554 48.284C497.978 48.636 497.538 49.14 497.234 49.796C496.93 50.452 496.75 51.144 496.694 51.872C497.19 51.136 497.806 50.62 498.542 50.324C499.286 50.02 500.038 49.868 500.798 49.868C501.95 49.868 502.938 50.14 503.762 50.684C504.594 51.228 505.23 51.968 505.67 52.904C506.118 53.832 506.342 54.868 506.342 56.012C506.342 57.292 506.074 58.412 505.538 59.372C505.002 60.332 504.258 61.076 503.306 61.604C502.354 62.132 501.254 62.392 500.006 62.384ZM500.15 59.672C501.19 59.672 501.974 59.352 502.502 58.712C503.038 58.064 503.306 57.204 503.306 56.132C503.306 55.036 503.03 54.172 502.478 53.54C501.934 52.908 501.158 52.592 500.15 52.592C499.126 52.592 498.346 52.908 497.81 53.54C497.274 54.172 497.006 55.036 497.006 56.132C497.006 57.252 497.278 58.124 497.822 58.748C498.366 59.364 499.142 59.672 500.15 59.672ZM508.973 62L508.961 49.04H511.853V53.36H513.305C513.665 53.36 514.069 53.368 514.517 53.384C514.973 53.4 515.353 53.436 515.657 53.492C516.385 53.652 517.005 53.908 517.517 54.26C518.037 54.612 518.433 55.072 518.705 55.64C518.977 56.208 519.113 56.892 519.113 57.692C519.113 58.836 518.817 59.752 518.225 60.44C517.633 61.12 516.805 61.584 515.741 61.832C515.429 61.904 515.041 61.952 514.577 61.976C514.113 61.992 513.701 62 513.341 62H508.973ZM511.853 59.732H513.593C513.769 59.732 513.965 59.724 514.181 59.708C514.397 59.692 514.601 59.656 514.793 59.6C515.153 59.504 515.473 59.288 515.753 58.952C516.033 58.608 516.173 58.188 516.173 57.692C516.173 57.172 516.033 56.744 515.753 56.408C515.473 56.072 515.129 55.852 514.721 55.748C514.529 55.7 514.333 55.668 514.133 55.652C513.941 55.636 513.761 55.628 513.593 55.628H511.853V59.732ZM520.469 62V49.04H523.361V62H520.469ZM529.979 62V51.608H525.647V49.04H537.203V51.608H532.871V62H529.979ZM539.465 62L539.453 49.04H542.345V53.36H544.673C545.033 53.36 545.437 53.368 545.885 53.384C546.341 53.4 546.721 53.436 547.025 53.492C547.753 53.652 548.373 53.908 548.885 54.26C549.405 54.612 549.801 55.072 550.073 55.64C550.345 56.208 550.481 56.892 550.481 57.692C550.481 58.836 550.185 59.752 549.593 60.44C549.009 61.12 548.185 61.584 547.121 61.832C546.801 61.904 546.409 61.952 545.945 61.976C545.489 61.992 545.077 62 544.709 62H539.465ZM542.345 59.732H544.961C545.137 59.732 545.333 59.724 545.549 59.708C545.765 59.692 545.973 59.656 546.173 59.6C546.533 59.504 546.849 59.288 547.121 58.952C547.401 58.608 547.541 58.188 547.541 57.692C547.541 57.172 547.401 56.744 547.121 56.408C546.841 56.072 546.497 55.852 546.089 55.748C545.905 55.7 545.713 55.668 545.513 55.652C545.313 55.636 545.129 55.628 544.961 55.628H542.345V59.732ZM557.898 62V49.04H563.79C564.214 49.04 564.61 49.064 564.978 49.112C565.346 49.16 565.662 49.22 565.926 49.292C566.55 49.476 567.102 49.836 567.582 50.372C568.062 50.9 568.302 51.632 568.302 52.568C568.302 53.12 568.214 53.576 568.038 53.936C567.862 54.288 567.63 54.584 567.342 54.824C567.206 54.936 567.066 55.032 566.922 55.112C566.778 55.192 566.634 55.256 566.49 55.304C566.802 55.352 567.098 55.444 567.378 55.58C567.818 55.796 568.186 56.116 568.482 56.54C568.786 56.964 568.938 57.56 568.938 58.328C568.938 59.2 568.726 59.936 568.302 60.536C567.886 61.128 567.274 61.54 566.466 61.772C566.17 61.852 565.83 61.912 565.446 61.952C565.062 61.984 564.67 62 564.27 62H557.898ZM560.826 59.768H564.066C564.234 59.768 564.418 59.752 564.618 59.72C564.818 59.688 564.998 59.644 565.158 59.588C565.446 59.484 565.654 59.3 565.782 59.036C565.918 58.772 565.986 58.496 565.986 58.208C565.986 57.816 565.886 57.504 565.686 57.272C565.494 57.032 565.262 56.872 564.99 56.792C564.83 56.728 564.654 56.692 564.462 56.684C564.278 56.668 564.126 56.66 564.006 56.66H560.826V59.768ZM560.826 54.392H563.226C563.474 54.392 563.714 54.38 563.946 54.356C564.186 54.324 564.386 54.272 564.546 54.2C564.81 54.096 565.002 53.92 565.122 53.672C565.25 53.424 565.314 53.148 565.314 52.844C565.314 52.524 565.242 52.236 565.098 51.98C564.962 51.716 564.742 51.54 564.438 51.452C564.238 51.372 563.994 51.328 563.706 51.32C563.426 51.312 563.246 51.308 563.166 51.308H560.826V54.392ZM574.952 62.36C574.016 62.36 573.224 62.184 572.576 61.832C571.928 61.472 571.436 60.996 571.1 60.404C570.772 59.812 570.608 59.16 570.608 58.448C570.608 57.824 570.712 57.264 570.92 56.768C571.128 56.264 571.448 55.832 571.88 55.472C572.312 55.104 572.872 54.804 573.56 54.572C574.08 54.404 574.688 54.252 575.384 54.116C576.088 53.98 576.848 53.856 577.664 53.744C578.488 53.624 579.348 53.496 580.244 53.36L579.212 53.948C579.22 53.052 579.02 52.392 578.612 51.968C578.204 51.544 577.516 51.332 576.548 51.332C575.964 51.332 575.4 51.468 574.856 51.74C574.312 52.012 573.932 52.48 573.716 53.144L571.076 52.316C571.396 51.22 572.004 50.34 572.9 49.676C573.804 49.012 575.02 48.68 576.548 48.68C577.7 48.68 578.712 48.868 579.584 49.244C580.464 49.62 581.116 50.236 581.54 51.092C581.772 51.548 581.912 52.016 581.96 52.496C582.008 52.968 582.032 53.484 582.032 54.044V62H579.5V59.192L579.92 59.648C579.336 60.584 578.652 61.272 577.868 61.712C577.092 62.144 576.12 62.36 574.952 62.36ZM575.528 60.056C576.184 60.056 576.744 59.94 577.208 59.708C577.672 59.476 578.04 59.192 578.312 58.856C578.592 58.52 578.78 58.204 578.876 57.908C579.028 57.54 579.112 57.12 579.128 56.648C579.152 56.168 579.164 55.78 579.164 55.484L580.052 55.748C579.18 55.884 578.432 56.004 577.808 56.108C577.184 56.212 576.648 56.312 576.2 56.408C575.752 56.496 575.356 56.596 575.012 56.708C574.676 56.828 574.392 56.968 574.16 57.128C573.928 57.288 573.748 57.472 573.62 57.68C573.5 57.888 573.44 58.132 573.44 58.412C573.44 58.732 573.52 59.016 573.68 59.264C573.84 59.504 574.072 59.696 574.376 59.84C574.688 59.984 575.072 60.056 575.528 60.056ZM585.133 62V49.04H587.905V59.432H591.565V49.04H594.337V59.432H597.997V49.04H600.769V62H585.133ZM614.31 62.384C613.078 62.368 612.03 62.092 611.166 61.556C610.302 61.02 609.626 60.264 609.138 59.288C608.65 58.312 608.354 57.16 608.25 55.832C608.202 55.152 608.198 54.392 608.238 53.552C608.278 52.712 608.366 51.892 608.502 51.092C608.638 50.292 608.826 49.612 609.066 49.052C609.314 48.492 609.638 47.976 610.038 47.504C610.438 47.024 610.87 46.624 611.334 46.304C611.862 45.936 612.434 45.652 613.05 45.452C613.674 45.252 614.326 45.1 615.006 44.996C615.686 44.884 616.386 44.784 617.106 44.696C617.826 44.608 618.538 44.496 619.242 44.36L619.506 46.916C619.058 47.028 618.538 47.116 617.946 47.18C617.362 47.236 616.754 47.3 616.122 47.372C615.498 47.444 614.902 47.548 614.334 47.684C613.766 47.82 613.274 48.02 612.858 48.284C612.282 48.636 611.842 49.14 611.538 49.796C611.234 50.452 611.054 51.144 610.998 51.872C611.494 51.136 612.11 50.62 612.846 50.324C613.59 50.02 614.342 49.868 615.102 49.868C616.254 49.868 617.242 50.14 618.066 50.684C618.898 51.228 619.534 51.968 619.974 52.904C620.422 53.832 620.646 54.868 620.646 56.012C620.646 57.292 620.378 58.412 619.842 59.372C619.306 60.332 618.562 61.076 617.61 61.604C616.658 62.132 615.558 62.392 614.31 62.384ZM614.454 59.672C615.494 59.672 616.278 59.352 616.806 58.712C617.342 58.064 617.61 57.204 617.61 56.132C617.61 55.036 617.334 54.172 616.782 53.54C616.238 52.908 615.462 52.592 614.454 52.592C613.43 52.592 612.65 52.908 612.114 53.54C611.578 54.172 611.31 55.036 611.31 56.132C611.31 57.252 611.582 58.124 612.126 58.748C612.67 59.364 613.446 59.672 614.454 59.672ZM624.525 67.76L627.021 60.908L627.069 62.924L621.417 49.04H624.429L628.437 59.312H627.669L631.569 49.04H634.461L627.237 67.76H624.525ZM634.822 64.88V59.732C635.526 59.732 636.026 59.492 636.322 59.012C636.618 58.532 636.854 57.7 637.03 56.516C637.142 55.812 637.234 55.068 637.306 54.284C637.378 53.5 637.438 52.672 637.486 51.8C637.542 50.928 637.59 50.008 637.63 49.04H647.278V59.732H648.586V64.88H645.85V62H637.546V64.88H634.822ZM638.698 59.732H644.398V51.308H640.162C640.138 51.788 640.11 52.28 640.078 52.784C640.046 53.28 640.01 53.776 639.97 54.272C639.93 54.768 639.886 55.244 639.838 55.7C639.798 56.148 639.75 56.564 639.694 56.948C639.606 57.62 639.498 58.172 639.37 58.604C639.242 59.036 639.018 59.412 638.698 59.732ZM652.697 67.76L655.193 60.908L655.241 62.924L649.589 49.04H652.601L656.609 59.312H655.841L659.741 49.04H662.633L655.409 67.76H652.697ZM678.354 64.724V62H664.398V49.04H667.17V59.432H670.83V49.04H673.602V59.432H677.262V49.04H680.034V59.432H681.246V64.724H678.354ZM694.404 49.04V62H691.632V53.54L685.464 62H683.148V49.04H685.92V57.284L692.112 49.04H694.404ZM703.762 47.576C703.098 47.576 702.49 47.412 701.938 47.084C701.386 46.756 700.946 46.32 700.618 45.776C700.29 45.224 700.126 44.612 700.126 43.94H702.382C702.382 44.324 702.514 44.652 702.778 44.924C703.05 45.188 703.378 45.32 703.762 45.32C704.146 45.32 704.47 45.188 704.734 44.924C705.006 44.652 705.142 44.324 705.142 43.94H707.398C707.398 44.612 707.234 45.224 706.906 45.776C706.578 46.32 706.138 46.756 705.586 47.084C705.034 47.412 704.426 47.576 703.762 47.576ZM709.006 49.04V62H706.234V53.54L700.066 62H697.75V49.04H700.522V57.284L706.714 49.04H709.006ZM717.156 62L717.18 49.04H720.108V55.28L724.848 49.04H728.46L723.432 55.52L728.892 62H725.064L720.108 55.76V62H717.156ZM735.584 62.36C734.288 62.36 733.156 62.068 732.188 61.484C731.22 60.9 730.468 60.096 729.932 59.072C729.404 58.04 729.14 56.856 729.14 55.52C729.14 54.16 729.412 52.968 729.956 51.944C730.5 50.92 731.256 50.12 732.224 49.544C733.192 48.968 734.312 48.68 735.584 48.68C736.888 48.68 738.024 48.972 738.992 49.556C739.96 50.14 740.712 50.948 741.248 51.98C741.784 53.004 742.052 54.184 742.052 55.52C742.052 56.864 741.78 58.052 741.236 59.084C740.7 60.108 739.948 60.912 738.98 61.496C738.012 62.072 736.88 62.36 735.584 62.36ZM735.584 59.648C736.736 59.648 737.592 59.264 738.152 58.496C738.712 57.728 738.992 56.736 738.992 55.52C738.992 54.264 738.708 53.264 738.14 52.52C737.572 51.768 736.72 51.392 735.584 51.392C734.808 51.392 734.168 51.568 733.664 51.92C733.168 52.264 732.8 52.748 732.56 53.372C732.32 53.988 732.2 54.704 732.2 55.52C732.2 56.776 732.484 57.78 733.052 58.532C733.628 59.276 734.472 59.648 735.584 59.648ZM750.768 67.4V62.228C749.504 62.428 748.356 62.292 747.324 61.82C746.3 61.348 745.484 60.58 744.876 59.516C744.276 58.452 743.976 57.12 743.976 55.52C743.976 53.928 744.276 52.596 744.876 51.524C745.484 50.452 746.3 49.684 747.324 49.22C748.356 48.748 749.504 48.612 750.768 48.812V44.924H753.336V48.812C754.6 48.612 755.744 48.748 756.768 49.22C757.8 49.684 758.616 50.452 759.216 51.524C759.824 52.596 760.128 53.928 760.128 55.52C760.128 57.12 759.824 58.452 759.216 59.516C758.616 60.58 757.8 61.348 756.768 61.82C755.744 62.292 754.6 62.428 753.336 62.228V67.4H750.768ZM750.768 59.636V51.428C750.12 51.316 749.552 51.336 749.064 51.488C748.584 51.632 748.184 51.888 747.864 52.256C747.552 52.616 747.316 53.076 747.156 53.636C746.996 54.188 746.916 54.816 746.916 55.52C746.916 56.232 746.996 56.864 747.156 57.416C747.324 57.968 747.572 58.428 747.9 58.796C748.228 59.164 748.632 59.424 749.112 59.576C749.592 59.72 750.144 59.74 750.768 59.636ZM753.336 59.636C753.96 59.74 754.512 59.72 754.992 59.576C755.472 59.432 755.872 59.18 756.192 58.82C756.52 58.46 756.768 58.004 756.936 57.452C757.104 56.892 757.188 56.248 757.188 55.52C757.188 54.792 757.108 54.152 756.948 53.6C756.788 53.048 756.548 52.592 756.228 52.232C755.916 51.864 755.516 51.612 755.028 51.476C754.548 51.332 753.984 51.316 753.336 51.428V59.636ZM768.658 62.36C767.346 62.36 766.194 62.076 765.202 61.508C764.21 60.94 763.434 60.152 762.874 59.144C762.322 58.136 762.046 56.976 762.046 55.664C762.046 54.248 762.318 53.02 762.862 51.98C763.406 50.932 764.162 50.12 765.13 49.544C766.098 48.968 767.218 48.68 768.49 48.68C769.834 48.68 770.974 48.996 771.91 49.628C772.854 50.252 773.554 51.136 774.01 52.28C774.466 53.424 774.638 54.772 774.526 56.324H771.658V55.268C771.65 53.86 771.402 52.832 770.914 52.184C770.426 51.536 769.658 51.212 768.61 51.212C767.426 51.212 766.546 51.58 765.97 52.316C765.394 53.044 765.106 54.112 765.106 55.52C765.106 56.832 765.394 57.848 765.97 58.568C766.546 59.288 767.386 59.648 768.49 59.648C769.202 59.648 769.814 59.492 770.326 59.18C770.846 58.86 771.246 58.4 771.526 57.8L774.382 58.664C773.886 59.832 773.118 60.74 772.078 61.388C771.046 62.036 769.906 62.36 768.658 62.36ZM764.194 56.324V54.14H773.11V56.324H764.194ZM777.215 62V59.036H780.179V62H777.215ZM784.504 62V59.036H787.468V62H784.504ZM791.793 62V59.036H794.757V62H791.793Z" fill="#E6EAEE"/>
<rect x="541" y="219" width="329" height="46" rx="23" fill="#EEF1F3"/>
<rect x="330" y="219" width="66" height="46" rx="23" fill="#EEF1F3"/>
<rect x="330" y="106" width="105" height="46" rx="23" fill="#EEF1F3"/>
<rect x="475" y="106" width="105" height="46" rx="23" fill="#EEF1F3"/>
<rect x="620" y="106" width="105" height="46" rx="23" fill="#EEF1F3"/>
<rect x="765" y="106" width="105" height="46" rx="23" fill="#EEF1F3"/>
<rect x="1" y="1" width="908" height="303" rx="11" stroke="#E7ECEF" stroke-width="2"/>
</svg>
