<svg width="910" height="305" viewBox="0 0 910 305" fill="none" xmlns="http://www.w3.org/2000/svg">
<rect x="1" y="1" width="908" height="303" rx="11" fill="white"/>
<rect width="290" height="305" rx="12" fill="#EEF1F3"/>
<path d="M335.832 62H338.736V47.432H344.328V44.72H330.24V47.432H335.832V62ZM354.795 51.08C353.931 49.376 352.107 48.68 349.803 48.68C346.731 48.68 344.955 50.12 344.307 52.304L346.971 53.144C347.379 51.824 348.627 51.32 349.779 51.32C351.555 51.32 352.347 52.016 352.443 53.528C350.163 53.84 348.171 54.128 346.803 54.56C344.763 55.28 343.851 56.576 343.851 58.448C343.851 60.584 345.387 62.36 348.195 62.36C350.259 62.36 351.651 61.688 352.755 60.248V62H355.275V54.056C355.275 52.928 355.251 51.992 354.795 51.08ZM352.107 57.896C351.843 58.808 350.739 60.056 348.771 60.056C347.403 60.056 346.683 59.36 346.683 58.4C346.683 57.584 347.259 57.08 348.267 56.696C349.179 56.408 350.355 56.216 352.419 55.88C352.395 56.504 352.347 57.32 352.107 57.896ZM358.375 62H361.327V55.76L366.295 62H370.111L364.663 55.52L369.679 49.04H366.079L361.327 55.28V49.04H358.399L358.375 62ZM376.814 62.36C380.678 62.36 383.27 59.552 383.27 55.52C383.27 51.512 380.702 48.68 376.814 48.68C372.974 48.68 370.358 51.464 370.358 55.52C370.358 59.528 372.902 62.36 376.814 62.36ZM376.814 59.648C374.582 59.648 373.43 58.04 373.43 55.52C373.43 53.072 374.486 51.392 376.814 51.392C379.07 51.392 380.222 53 380.222 55.52C380.222 57.944 379.094 59.648 376.814 59.648ZM391.914 47.6C393.906 47.6 395.538 45.968 395.538 43.952H393.282C393.282 44.72 392.682 45.344 391.914 45.344C391.146 45.344 390.522 44.72 390.522 43.952H388.266C388.266 45.968 389.898 47.6 391.914 47.6ZM397.146 49.04H394.842L388.674 57.272V49.04H385.89V62H388.218L394.386 53.528V62H397.146V49.04ZM405.297 62H408.249V55.76L413.217 62H417.033L411.585 55.52L416.601 49.04H413.001L408.249 55.28V49.04H405.321L405.297 62ZM423.736 62.36C427.6 62.36 430.192 59.552 430.192 55.52C430.192 51.512 427.624 48.68 423.736 48.68C419.896 48.68 417.28 51.464 417.28 55.52C417.28 59.528 419.824 62.36 423.736 62.36ZM423.736 59.648C421.504 59.648 420.352 58.04 420.352 55.52C420.352 53.072 421.408 51.392 423.736 51.392C425.992 51.392 427.144 53 427.144 55.52C427.144 57.944 426.016 59.648 423.736 59.648ZM438.908 67.4H441.476V62.216C445.268 62.816 448.268 60.32 448.268 55.52C448.268 50.744 445.268 48.224 441.476 48.824V44.912H438.908V48.824C435.116 48.224 432.116 50.744 432.116 55.52C432.116 60.32 435.116 62.816 438.908 62.216V67.4ZM438.908 59.624C436.412 60.056 435.068 58.352 435.068 55.52C435.068 52.688 436.316 50.984 438.908 51.416V59.624ZM441.476 59.624V51.416C444.068 50.984 445.34 52.616 445.34 55.52C445.34 58.424 443.972 60.056 441.476 59.624ZM453.307 56.336H462.667C463.003 51.656 460.651 48.68 456.643 48.68C452.827 48.68 450.187 51.416 450.187 55.664C450.187 59.6 452.875 62.36 456.787 62.36C459.307 62.36 461.539 61.016 462.523 58.664L459.667 57.8C459.115 59 458.059 59.648 456.643 59.648C454.675 59.648 453.523 58.472 453.307 56.336ZM456.763 51.2C458.539 51.2 459.475 52.112 459.739 54.128H453.379C453.715 52.208 454.819 51.2 456.763 51.2ZM472.549 56.336H481.909C482.245 51.656 479.893 48.68 475.885 48.68C472.069 48.68 469.429 51.416 469.429 55.664C469.429 59.6 472.117 62.36 476.029 62.36C478.549 62.36 480.781 61.016 481.765 58.664L478.909 57.8C478.357 59 477.301 59.648 475.885 59.648C473.917 59.648 472.765 58.472 472.549 56.336ZM476.005 51.2C477.781 51.2 478.717 52.112 478.981 54.128H472.621C472.957 52.208 474.061 51.2 476.005 51.2ZM498.53 64.712H501.41V59.432H500.186V49.04H497.426V59.432H493.778V49.04H490.994V59.432H487.346V49.04H484.562V62H498.53V64.712ZM505.736 56.336H515.096C515.432 51.656 513.08 48.68 509.072 48.68C505.256 48.68 502.616 51.416 502.616 55.664C502.616 59.6 505.304 62.36 509.216 62.36C511.736 62.36 513.968 61.016 514.952 58.664L512.096 57.8C511.544 59 510.488 59.648 509.072 59.648C507.104 59.648 505.952 58.472 505.736 56.336ZM509.192 51.2C510.968 51.2 511.904 52.112 512.168 54.128H505.808C506.144 52.208 507.248 51.2 509.192 51.2ZM522.554 62H525.458V56.864H531.266V62H534.17V49.04H531.266V54.152H525.458V49.04H522.554V62ZM539.932 56.336H549.292C549.628 51.656 547.276 48.68 543.268 48.68C539.452 48.68 536.812 51.416 536.812 55.664C536.812 59.6 539.5 62.36 543.412 62.36C545.932 62.36 548.164 61.016 549.148 58.664L546.292 57.8C545.74 59 544.684 59.648 543.268 59.648C541.3 59.648 540.148 58.472 539.932 56.336ZM543.388 51.2C545.164 51.2 546.1 52.112 546.364 54.128H540.004C540.34 52.208 541.444 51.2 543.388 51.2ZM556.75 62H559.654V51.752H565.126V62H568.006V49.04H556.75V62ZM577.495 48.68C576.031 48.68 574.831 49.136 573.919 49.952V49.04H571.351V67.76H574.255V61.328C575.143 61.976 576.247 62.36 577.591 62.36C581.191 62.36 583.519 59.408 583.519 55.52C583.519 51.584 581.167 48.68 577.495 48.68ZM577.159 59.768C574.831 59.768 573.919 58.04 573.919 55.52C573.919 53 574.855 51.272 577.063 51.272C579.391 51.272 580.471 53.168 580.471 55.52C580.471 57.896 579.415 59.768 577.159 59.768ZM597.396 49.04H595.092L588.924 57.272V49.04H586.14V62H588.468L594.636 53.528V62H597.396V49.04ZM599.806 64.88H602.542V62H610.846V64.88H613.558V59.72H612.262V49.04H602.614C602.494 51.944 602.326 54.392 602.014 56.504C601.678 58.904 601.198 59.72 599.806 59.72V64.88ZM603.694 59.72C604.318 59.096 604.51 58.304 604.678 56.96C604.894 55.4 605.038 53.24 605.158 51.296H609.382V59.72H603.694ZM624.572 49.04L621.068 58.304L617.444 49.04H614.444L619.676 61.928L617.54 67.76H620.252L627.476 49.04H624.572ZM629.219 62H632.003V54.848L635.675 62H636.827L640.499 54.848V62H643.259V49.04H640.883L636.251 57.992L631.595 49.04H629.219V62ZM656.834 51.08C655.97 49.376 654.146 48.68 651.842 48.68C648.77 48.68 646.994 50.12 646.346 52.304L649.01 53.144C649.418 51.824 650.666 51.32 651.818 51.32C653.594 51.32 654.386 52.016 654.482 53.528C652.202 53.84 650.21 54.128 648.842 54.56C646.802 55.28 645.89 56.576 645.89 58.448C645.89 60.584 647.426 62.36 650.234 62.36C652.298 62.36 653.69 61.688 654.794 60.248V62H657.314V54.056C657.314 52.928 657.29 51.992 656.834 51.08ZM654.146 57.896C653.882 58.808 652.778 60.056 650.81 60.056C649.442 60.056 648.722 59.36 648.722 58.4C648.722 57.584 649.298 57.08 650.306 56.696C651.218 56.408 652.394 56.216 654.458 55.88C654.434 56.504 654.386 57.32 654.146 57.896ZM659.238 62C662.19 62.672 663.294 61.64 663.822 58.808C664.158 57.128 664.446 53.864 664.614 51.752H668.718V62H671.598V49.04H662.046C661.878 52.352 661.638 55.568 661.23 57.704C660.966 59.24 660.654 59.84 659.238 59.576V62ZM686.201 49.04H683.897L677.729 57.272V49.04H674.945V62H677.273L683.441 53.528V62H686.201V49.04ZM690.051 62H693.003V59.048H690.051V62ZM697.316 62H700.268V59.048H697.316V62Z" fill="#E6EAEE"/>
<rect x="541" y="219" width="329" height="46" rx="23" fill="#EEF1F3"/>
<rect x="330" y="219" width="66" height="46" rx="23" fill="#EEF1F3"/>
<rect x="330" y="106" width="105" height="46" rx="23" fill="#EEF1F3"/>
<rect x="475" y="106" width="105" height="46" rx="23" fill="#EEF1F3"/>
<rect x="620" y="106" width="105" height="46" rx="23" fill="#EEF1F3"/>
<rect x="765" y="106" width="105" height="46" rx="23" fill="#EEF1F3"/>
<rect x="1" y="1" width="908" height="303" rx="11" stroke="#E7ECEF" stroke-width="2"/>
</svg>
