<svg width="135" height="135" viewBox="0 0 135 135" fill="none" xmlns="http://www.w3.org/2000/svg">
<circle cx="67.5" cy="67.5" r="67.5" fill="#1D1D1D"/>
<g clip-path="url(#clip0_1985_6719)">
<path d="M67.6897 51.8718C61.1987 51.8718 55.9346 57.1581 55.9346 63.6765C55.9346 70.1948 61.1987 75.4811 67.6897 75.4811C74.1807 75.4811 79.4448 70.1948 79.4448 63.6765C79.4124 57.1256 74.1483 51.8718 67.6897 51.8718ZM67.6897 70.0554C64.1803 70.0554 61.3376 67.2007 61.3376 63.6765C61.3376 60.1523 64.1803 57.2976 67.6897 57.2976C71.1991 57.2976 74.0418 60.1523 74.0418 63.6765C74.0418 67.1681 71.1991 70.0554 67.6897 70.0554Z" fill="white"/>
<path d="M73.0231 80.0281H62.356V84.7843H73.0231V80.0281Z" fill="white"/>
<path d="M38.846 64.5923C38.7766 65.3687 38.4941 66.108 37.971 66.7403C37.5126 67.2703 36.883 67.5865 36.1792 67.5865L36.1422 66.2847C36.5635 66.2475 36.9478 66.0383 37.1932 65.6849C37.508 65.299 37.6839 64.8387 37.721 64.3459C37.7904 63.9228 37.721 63.4672 37.545 63.0766C37.3691 62.7605 37.0867 62.5466 36.7394 62.5141C36.5635 62.4769 36.3876 62.5141 36.2116 62.5838C36.0033 62.7233 35.8598 62.9371 35.7533 63.1464C35.6144 63.43 35.4014 63.8856 35.156 64.4854C34.9477 65.0154 34.6977 65.5082 34.4199 66.0011C34.244 66.3172 33.9616 66.5636 33.6467 66.7403C33.3643 66.8798 33.0171 66.917 32.6976 66.8798C32.2763 66.8426 31.892 66.6706 31.5726 66.387C31.2578 66.0708 31.0448 65.6803 30.9429 65.2572C30.804 64.7643 30.767 64.2343 30.8364 63.7089C30.9059 63.1836 31.0448 62.6861 31.2948 62.1933C31.5031 61.8074 31.8226 61.454 32.2069 61.2076C32.5587 60.9612 32.98 60.8542 33.4338 60.8542L33.5032 62.1561C33.1189 62.1561 32.73 62.3327 32.4846 62.6163C32.2022 62.9697 31.9939 63.3928 31.9569 63.8484C31.8874 64.2715 31.9198 64.6946 32.0633 65.0805C32.1791 65.4059 32.4615 65.6152 32.7763 65.6524C32.9523 65.6896 33.1282 65.6524 33.2671 65.5454C33.443 65.3688 33.619 65.1921 33.7254 64.9457C33.8643 64.6621 34.0773 64.2064 34.2856 63.6438C34.4616 63.1138 34.744 62.621 35.0218 62.1282C35.1977 61.812 35.4801 61.5656 35.8274 61.3889C36.1422 61.2494 36.4941 61.2122 36.8459 61.2494C37.5126 61.3192 38.1099 61.6725 38.4617 62.2723C38.883 62.9743 38.9895 63.7833 38.846 64.5923Z" fill="white"/>
<path d="M40.7766 56.5254C40.7072 56.9856 40.6007 57.4041 40.4618 57.8272C40.3229 58.2131 40.1099 58.5664 39.8322 58.85C39.5868 59.1336 39.2349 59.3103 38.8506 59.3428C38.5358 59.38 38.221 59.38 37.9015 59.2731C37.5867 59.1662 37.3043 59.0639 36.92 58.957L30.4614 56.702L30.8827 55.5025L37.2672 57.7202C37.5821 57.8272 37.795 57.8969 38.0034 57.9666C38.1793 58.0364 38.3877 58.0364 38.6006 58.0038C38.9525 57.9341 39.2303 57.7202 39.3738 57.4041C39.5497 57.0182 39.6886 56.5579 39.7581 56.1348L40.7766 56.5254ZM32.9199 59.1662L31.9383 58.8128L33.5865 53.9868L34.5681 54.3402L32.9199 59.1662Z" fill="white"/>
<path d="M41.2674 55.5027L34.6375 51.8019L35.1653 50.8162L36.7811 51.6949L36.4663 51.7321C36.2904 51.5555 36.1839 51.3462 36.082 51.1324C35.9755 50.9231 35.9061 50.7093 35.9061 50.4629C35.869 50.2164 35.869 49.97 35.9061 49.6864C35.9431 49.44 36.045 49.1936 36.1515 48.9472C36.2579 48.738 36.3968 48.5241 36.5357 48.3474L37.5543 48.91C37.3459 49.1192 37.2024 49.3703 37.0959 49.6492C36.9895 49.9328 36.92 50.249 36.957 50.5651C36.9941 50.8488 37.0959 51.1277 37.2395 51.3741C37.3784 51.6205 37.5913 51.8344 37.7997 52.0064C38.008 52.1831 38.258 52.3598 38.5358 52.4993L41.8693 54.3683L41.2674 55.5027Z" fill="white"/>
<path d="M45.7956 49.1237C45.3743 49.6537 44.777 50.0396 44.1104 50.2535C43.4807 50.4302 42.8464 50.4301 42.2168 50.2907C41.513 50.0814 40.8834 49.7281 40.3556 49.2353C39.7954 48.775 39.3741 48.1799 39.0916 47.5104C38.8463 46.9106 38.7768 46.2783 38.8833 45.6088C39.0222 44.9393 39.3046 44.307 39.7583 43.8095C40.1796 43.2795 40.7769 42.8936 41.4436 42.6797C42.0732 42.503 42.7075 42.4705 43.3372 42.6425C44.7076 43.0656 45.865 44.0885 46.4623 45.3903C46.7077 45.99 46.8142 46.6595 46.7077 47.2918C46.5688 47.9985 46.254 48.6309 45.7956 49.1237ZM44.9206 48.3472C45.4113 47.8544 45.6243 47.1849 45.4808 46.5154C45.3048 45.8087 44.8835 45.1764 44.3233 44.7161C43.7955 44.2233 43.1288 43.8699 42.3927 43.8002C41.726 43.763 41.0963 44.0838 40.675 44.6464C40.3602 44.9997 40.1472 45.4228 40.0778 45.8785C40.0408 46.3015 40.1148 46.7246 40.3232 47.1105C40.5685 47.5708 40.8834 47.9567 41.2723 48.2729C41.8001 48.8029 42.4668 49.119 43.2029 49.1888C43.865 49.1609 44.4993 48.8773 44.9206 48.3472Z" fill="white"/>
<path d="M48.7769 45.6373L44.5684 39.2956L45.5175 38.6959L46.6425 40.3882L46.749 40.3185L49.8371 44.9353L48.7769 45.6373ZM53.2678 42.6431L51.1612 39.4723C50.9853 39.1887 50.7399 38.9097 50.4945 38.6633C50.2862 38.4169 50.0038 38.2402 49.7213 38.1007C49.4389 37.9613 49.1611 37.9241 48.8463 37.9241C48.4944 37.9613 48.1796 38.1007 47.8972 38.2774C47.6518 38.4541 47.4388 38.6308 47.2999 38.8772C47.1611 39.0864 47.0546 39.37 47.0175 39.6536C46.9805 39.9698 47.0175 40.2859 47.124 40.5695C47.2305 40.9554 47.4064 41.3088 47.6518 41.6249L46.8092 41.8714C46.4249 41.3413 46.1795 40.709 46.1055 40.0721C46.036 39.5095 46.1055 38.9423 46.3508 38.4169C46.6333 37.8869 47.0175 37.4312 47.5453 37.1151C47.8972 36.8687 48.2815 36.692 48.7028 36.6223C49.0546 36.5525 49.4065 36.5851 49.7537 36.6595C50.0686 36.7292 50.3834 36.8687 50.6658 37.0825C50.9482 37.2592 51.1936 37.5056 51.439 37.752C51.6473 37.9613 51.8233 38.2123 51.9992 38.4913L54.3141 42.0155L53.2678 42.6431Z" fill="white"/>
<path d="M58.3236 40.7041C57.7264 40.9134 57.0597 40.9505 56.43 40.7739C55.8328 40.5972 55.305 40.2438 54.8883 39.7882C53.9392 38.6956 53.4855 37.3194 53.592 35.8781C53.6614 35.2458 53.8744 34.6461 54.2587 34.1532C54.6429 33.6604 55.2078 33.2745 55.8004 33.0978C56.3976 32.8886 57.0643 32.8514 57.694 33.0281C58.2912 33.2048 58.782 33.5581 59.2033 34.0509C60.0783 35.1435 60.5367 36.5523 60.4672 37.961C60.4302 38.5933 60.2218 39.1606 59.87 39.6859C59.4811 40.1416 58.9533 40.4903 58.3236 40.7041ZM58.1107 39.5418C58.532 39.4349 58.9162 39.1559 59.1987 38.8026C59.444 38.4492 59.5505 38.0261 59.5829 37.603C59.5829 37.1102 59.5135 36.5802 59.3375 36.1245C59.1987 35.6317 58.9533 35.1714 58.6338 34.7855C58.3884 34.4322 58.0366 34.1858 57.6523 34.0463C57.231 33.9068 56.7773 33.9394 56.3884 34.0835C55.967 34.223 55.5828 34.4694 55.3004 34.8599C55.055 35.2133 54.9161 35.6364 54.9161 36.092C54.9161 37.0777 55.2309 38.0633 55.8282 38.8769C56.1106 39.2303 56.4578 39.4767 56.8467 39.6162C57.2356 39.7185 57.6893 39.7185 58.1107 39.5418ZM59.4811 43.875C59.0968 44.0145 58.7079 44.0517 58.3236 44.0517C57.9393 44.0517 57.518 43.9819 57.1662 43.8424C56.7819 43.703 56.43 43.4891 56.1152 43.2101L57.0273 42.2942C57.3097 42.5778 57.6569 42.7545 58.0458 42.8242C58.3977 42.894 58.782 42.8614 59.1338 42.7173C59.5181 42.6104 59.907 42.4011 60.1848 42.085C60.4302 41.8014 60.5691 41.4852 60.6061 41.1319C60.6432 40.6716 60.5691 40.2531 60.4302 39.8301L59.8005 37.8587L59.9394 37.8215L58.1801 32.526L59.2311 32.1726L61.6154 39.4674C61.6849 39.6766 61.7219 39.8533 61.7913 40.03C61.8284 40.2067 61.8608 40.4159 61.8978 40.5925C61.9673 41.0854 61.9349 41.5782 61.7589 42.0385C61.583 42.4616 61.3006 42.8475 60.9534 43.1311C60.4626 43.4519 60.0042 43.7355 59.4811 43.875Z" fill="white"/>
<path d="M68.7083 39.1511C68.0045 39.1511 67.3379 38.9419 66.7776 38.5886C66.2499 38.2352 65.8285 37.7098 65.5832 37.1426C65.3007 36.4731 65.1989 35.7664 65.1989 35.0644C65.1989 34.3623 65.3748 33.6184 65.6896 32.9861C65.9721 32.4236 66.4258 31.9307 66.9536 31.6099C68.2175 30.9404 69.7592 31.0102 70.9537 31.7866C71.5139 32.1725 71.9028 32.7723 72.0788 33.4418L70.8148 33.7951C70.6759 33.372 70.4306 33.0187 70.0787 32.7397C69.7268 32.4933 69.3055 32.3538 68.8518 32.3538C67.9397 32.2841 67.0971 32.8141 66.7823 33.6556C66.6063 34.1159 66.4999 34.6087 66.4674 35.1016C66.4304 35.8408 66.6063 36.5475 66.9953 37.1798C67.3795 37.7098 68.0138 38.026 68.6805 37.9888C69.1018 38.026 69.5555 37.9191 69.9074 37.6727C70.2593 37.4262 70.5371 37.1101 70.6806 36.687L71.9445 37.0403C71.6991 37.7098 71.2408 38.2399 70.6806 38.6258C70.1111 39.0489 69.412 39.2209 68.7083 39.1511Z" fill="white"/>
<path d="M75.6578 40.281C74.9911 40.1043 74.3939 39.751 73.9402 39.2581C73.5188 38.7653 73.2364 38.1656 73.1346 37.5332C73.0281 36.8265 73.0651 36.0873 73.2735 35.3853C73.4494 34.6786 73.8013 34.0462 74.292 33.4837C74.7133 32.9908 75.2735 32.6375 75.9078 32.4608C76.5745 32.2842 77.2412 32.3213 77.9079 32.498C78.5746 32.6747 79.1718 33.028 79.6626 33.5209C80.0839 34.0137 80.3663 34.5763 80.4682 35.2458C80.5747 35.9525 80.5376 36.6917 80.3293 37.3938C80.1534 38.1005 79.8015 38.7328 79.3107 39.2953C78.8894 39.7882 78.3292 40.1415 77.6949 40.3182C76.9912 40.4902 76.2875 40.4577 75.6578 40.281ZM75.9726 39.1187C76.6023 39.3651 77.3431 39.2581 77.8662 38.8351C78.4264 38.3748 78.8153 37.7425 78.9913 37.0358C79.2367 36.3291 79.2367 35.5898 78.9913 34.8878C78.7459 34.2555 78.1857 33.7952 77.519 33.6557C77.0606 33.5162 76.6069 33.5162 76.1486 33.6557C75.7643 33.7952 75.4124 34.0416 75.13 34.3949C74.8476 34.7808 74.6022 35.2411 74.5004 35.734C74.255 36.4407 74.255 37.1799 74.5004 37.8819C74.7782 38.5189 75.3059 38.9745 75.9726 39.1187Z" fill="white"/>
<path d="M80.6719 41.7969L84.9544 34.9949C85.0609 34.8183 85.1628 34.6788 85.3063 34.5021C85.4452 34.3254 85.5887 34.1859 85.7276 34.0418C85.9036 33.9023 86.0795 33.8326 86.2878 33.7582C86.4962 33.6885 86.7462 33.6885 86.9916 33.721C87.1999 33.7582 87.4129 33.8279 87.5888 33.9302C87.7647 34.0372 87.9407 34.1394 88.1166 34.2464L88.9222 34.7764L88.3944 35.6551L87.6212 35.1623C87.3758 34.9856 87.061 34.9159 86.7786 34.9531C86.4962 35.0228 86.2508 35.2367 86.1119 35.4831L81.7275 42.4618L80.6719 41.7969ZM83.0933 35.5575L83.6535 34.6788L87.4777 37.1104L86.9175 37.9891L83.0933 35.5575ZM84.4266 44.1913L88.7092 37.3893C88.8157 37.2127 88.9176 37.0732 89.0611 36.8965C89.2 36.7198 89.3435 36.5803 89.4824 36.4362C89.6583 36.2967 89.8343 36.227 90.0426 36.1526C90.2509 36.0829 90.501 36.0829 90.7463 36.1154C90.9547 36.1526 91.1677 36.2223 91.3436 36.3246C91.5195 36.4316 91.6954 36.5339 91.8714 36.6408L92.677 37.1708L92.1168 38.0495L91.3806 37.5567C91.1352 37.38 90.8204 37.3103 90.538 37.3475C90.2556 37.4172 90.0102 37.6311 89.8713 37.8775L85.4869 44.8562L84.4266 44.1913ZM86.848 37.9565L87.4082 37.0778L91.2325 39.5094L90.7047 40.3882L86.848 37.9565Z" fill="white"/>
<path d="M89.3063 48.8449C88.8479 48.3521 88.5007 47.7151 88.3572 47.0456C88.2183 46.4133 88.2877 45.7438 88.4961 45.144C88.7414 44.4745 89.1628 43.8748 89.723 43.3819C90.2508 42.8519 90.9175 42.5032 91.6166 42.2521C92.2462 42.0755 92.8805 42.0755 93.5101 42.2521C94.1398 42.4614 94.7371 42.8519 95.1584 43.3447C95.6491 43.8376 95.9639 44.4745 96.0704 45.144C96.1769 45.8135 96.0704 46.483 95.7556 47.0456C95.4037 47.7523 94.8806 48.3846 94.2833 48.8774L93.4407 47.9243L93.7926 47.6082C94.4593 46.9759 94.8435 46.3761 94.95 45.7763C95.0195 45.144 94.8111 44.5443 94.3528 44.084C93.9315 43.5539 93.3018 43.275 92.5981 43.275C91.9684 43.3122 91.3017 43.6283 90.598 44.2606C90.0008 44.7209 89.6165 45.3904 89.473 46.1297C89.4035 46.7992 89.6119 47.4315 90.0702 47.8918C90.385 48.2451 90.7739 48.4915 91.1952 48.631C91.6166 48.738 92.0703 48.738 92.5286 48.5938L93.0194 49.7562C92.3527 50.0026 91.649 50.0026 90.9823 49.8259C90.3572 49.7608 89.76 49.3703 89.3063 48.8449ZM90.1119 44.2606L90.848 43.5911L94.6398 47.7848L93.9037 48.4543L90.1119 44.2606Z" fill="white"/>
<path d="M93.5842 55.1164C93.2694 54.5166 93.0935 53.8471 93.1259 53.145C93.1629 52.5127 93.3713 51.8758 93.7555 51.3458C94.1769 50.746 94.7371 50.2904 95.4037 49.9696C96.0704 49.6162 96.7742 49.407 97.5427 49.407C98.1724 49.407 98.8067 49.5465 99.3669 49.8998C99.9271 50.2532 100.385 50.7785 100.7 51.3783C101.015 51.9781 101.191 52.6801 101.122 53.3496C101.052 54.0191 100.77 54.6189 100.348 55.1117C99.8206 55.7115 99.1539 56.1671 98.4548 56.4879L97.8575 55.3581L98.2418 55.1489C99.0474 54.7258 99.6122 54.233 99.8576 53.6704C100.103 53.1079 100.066 52.4383 99.7187 51.9083C99.4363 51.3086 98.9131 50.8529 98.2464 50.6763C97.6168 50.5368 96.876 50.6763 96.0704 51.1365C95.4037 51.4201 94.8435 51.9455 94.4917 52.615C94.2463 53.2148 94.2833 53.9168 94.6306 54.4841C94.8389 54.9071 95.1584 55.2605 95.5426 55.5069C95.9269 55.7161 96.3853 55.8603 96.8066 55.8231L96.9825 57.0923C96.2788 57.1295 95.5797 56.9854 94.9824 56.5995C94.3574 56.2787 93.9037 55.7487 93.5842 55.1164ZM95.5519 50.9227L96.4269 50.4624L98.9872 55.4651L98.0751 55.9253L95.5519 50.9227Z" fill="white"/>
<path d="M92.9917 61.9139L103.867 60.6121L104.006 61.7418L98.4641 62.4114L98.5012 62.5508L93.1676 63.1831L92.9917 61.9139ZM96.5335 65.015C96.427 64.3827 96.5335 63.7132 96.8483 63.1459C97.1632 62.6159 97.5845 62.1603 98.1447 61.8767C99.4086 61.2072 100.848 61.0305 102.214 61.3838C102.812 61.5233 103.339 61.8767 103.756 62.2998C104.177 62.7926 104.423 63.3924 104.492 64.0247C104.599 64.657 104.492 65.3265 104.177 65.8937C103.895 66.4563 103.441 66.9166 102.913 67.2327C101.686 67.9394 100.21 68.1114 98.8438 67.7255C98.2465 67.5489 97.6863 67.1955 97.265 66.7399C96.8483 66.2842 96.603 65.6845 96.5335 65.015ZM97.6585 64.736C97.6956 65.1963 97.8669 65.5822 98.1863 65.9355C98.5012 66.2517 98.8901 66.4656 99.3114 66.5353C100.293 66.7445 101.311 66.605 102.186 66.182C102.571 65.9727 102.89 65.6891 103.099 65.3032C103.307 64.9173 103.381 64.4245 103.307 64.0014C103.27 63.5783 103.099 63.1552 102.816 62.8391C102.534 62.5229 102.149 62.3091 101.728 62.2393C100.747 62.0301 99.691 62.1696 98.779 62.5927C98.3947 62.7694 98.0752 63.0855 97.8669 63.4389C97.6585 63.8201 97.5845 64.2757 97.6585 64.736Z" fill="white"/>
<path d="M96.5704 71.4639C96.6075 70.9711 96.7788 70.5108 97.0612 70.0877C97.3066 69.7716 97.6214 69.488 98.0103 69.3485C98.714 69.0649 99.5196 69.1718 100.149 69.5577C100.432 69.7344 100.64 70.018 100.779 70.297C100.955 70.6131 101.061 70.9665 101.094 71.3524C101.131 71.7755 101.163 72.1614 101.2 72.5844C101.2 73.0447 101.237 73.5004 101.2 73.9606V75.2625L100.992 74.7696C101.52 74.8766 102.043 74.8068 102.501 74.5604C102.853 74.314 103.098 73.8537 103.168 73.1842C103.237 72.7611 103.168 72.338 103.029 71.9521C102.853 71.5662 102.501 71.2454 102.117 71.106L102.645 69.9762C103.242 70.2226 103.733 70.6829 104.048 71.2454C104.362 71.9149 104.469 72.6542 104.33 73.3934C104.261 73.9932 104.048 74.5929 103.733 75.1183C103.45 75.5786 102.997 75.8948 102.469 76.0342C102.223 76.104 101.941 76.1412 101.696 76.1412C101.413 76.1412 101.135 76.104 100.853 76.0714L96.1862 75.4391L96.3251 74.3465L98.1168 74.593L97.9085 74.8394C97.3807 74.5232 96.9593 74.0304 96.6816 73.4632C96.4964 72.7704 96.4269 72.1009 96.5704 71.4639ZM97.5844 71.7801C97.5149 72.166 97.5473 72.5891 97.6538 72.9796C97.7603 73.2958 97.9362 73.6119 98.1816 73.8584C98.39 74.1048 98.6724 74.2814 98.9872 74.3512C99.2326 74.4581 99.478 74.5279 99.7604 74.5604C100.043 74.593 100.251 74.6301 100.427 74.6673L100.182 75.0904C100.182 74.6673 100.182 74.2814 100.182 73.8584C100.182 73.4353 100.182 73.0819 100.182 72.7286C100.182 72.4124 100.145 72.0963 100.112 71.7755C100.075 71.5662 100.006 71.3524 99.9363 71.1757C99.8669 70.999 99.7604 70.8223 99.5844 70.6829C99.4085 70.5434 99.2326 70.4736 99.0242 70.4364C98.8159 70.3993 98.6029 70.4364 98.427 70.5062C98.2187 70.6131 98.0427 70.7526 97.8992 70.9293C97.7279 71.185 97.6214 71.5011 97.5844 71.7801Z" fill="white"/>
<path d="M95.7602 76.6807L102.918 79.2517L102.534 80.3071L100.816 79.7074L101.098 79.6004C101.274 79.7771 101.45 79.9538 101.589 80.1305C101.728 80.3071 101.835 80.5164 101.904 80.7302C101.973 80.9766 102.01 81.2231 102.01 81.4695C102.01 81.7159 101.973 81.9995 101.904 82.2459C101.835 82.4923 101.728 82.7062 101.622 82.9154L100.497 82.5295C100.672 82.2831 100.779 81.9995 100.848 81.7205C100.918 81.4044 100.918 81.0882 100.811 80.7674C100.742 80.4838 100.603 80.2374 100.39 80.0282C100.214 79.819 99.9687 79.6423 99.7234 79.4982C99.478 79.3587 99.1956 79.2146 98.9178 79.1123L95.3389 77.8105L95.7602 76.6807Z" fill="white"/>
<path d="M91.936 84.8916C92.0749 84.4685 92.2508 84.0454 92.4962 83.6595C92.7045 83.3061 92.987 82.99 93.3018 82.7808C93.6166 82.5715 93.9685 82.4646 94.3527 82.4646C94.6676 82.4646 94.9824 82.5715 95.2648 82.711C95.5472 82.8505 95.825 83.0272 96.1769 83.2038L102.108 86.5886L101.51 87.6812L95.6167 84.2964C95.3343 84.157 95.1259 84.0128 94.913 83.9105C94.737 83.8036 94.5287 83.7711 94.3527 83.7339C94.0009 83.7339 93.6861 83.9105 93.5101 84.157C93.2647 84.5103 93.0518 84.9334 92.9129 85.3565L91.936 84.8916ZM100.149 83.7292L101.061 84.2592L98.5335 88.6994L97.6214 88.1693L100.149 83.7292Z" fill="white"/>
<path d="M87.7598 89.7538L90.5655 92.3248C90.8108 92.5713 91.0933 92.7851 91.4081 92.9571C91.6905 93.1338 91.9683 93.2408 92.2831 93.3105C92.5655 93.3802 92.8804 93.3802 93.1582 93.2733C93.473 93.1664 93.7878 92.9572 94.0008 92.6735C94.2091 92.4643 94.3526 92.2133 94.4591 91.9343C94.5656 91.6879 94.598 91.4043 94.5656 91.1253C94.5286 90.8092 94.4267 90.5256 94.2508 90.2466C94.0424 89.9304 93.7924 89.6143 93.5146 89.3679L94.2508 88.9448C94.7415 89.3679 95.1258 89.9304 95.3758 90.5302C95.5842 91.0602 95.6212 91.6228 95.5147 92.1854C95.3758 92.7851 95.0934 93.3152 94.6721 93.7336C94.3897 94.0497 94.0424 94.3334 93.6535 94.51C93.3387 94.6495 92.9869 94.7193 92.6026 94.7193C92.2507 94.7193 91.9359 94.6495 91.6211 94.5426C91.3062 94.4356 90.9914 94.2962 90.709 94.0823C90.4636 93.9056 90.2182 93.7289 89.9728 93.5197L86.8848 90.665L87.7598 89.7538ZM91.4127 85.7693L96.9916 90.9161L96.2185 91.7623L94.7462 90.3861L94.6397 90.493L90.5331 86.7224L91.4127 85.7693Z" fill="white"/>
<path d="M83.1303 93.0276C83.6905 92.6417 84.3572 92.4278 85.0239 92.3953C85.6536 92.3953 86.2879 92.5347 86.8481 92.8556C87.4777 93.2414 88.0055 93.7343 88.3574 94.3712C88.7787 95.0035 89.0241 95.7102 89.1306 96.4495C89.2 97.0818 89.0935 97.7513 88.8157 98.3185C88.5009 98.9183 88.0426 99.4111 87.4453 99.7645C86.8851 100.15 86.2184 100.364 85.5147 100.364C84.848 100.364 84.2183 100.118 83.6905 99.7319C83.0609 99.2716 82.5331 98.6393 82.1488 97.9326L83.1998 97.2631L83.4452 97.649C83.973 98.4254 84.4961 98.9183 85.061 99.1275C85.6582 99.3042 86.3249 99.1972 86.8157 98.8113C87.4129 98.4952 87.7972 97.8954 87.9037 97.2259C87.9731 96.5936 87.7648 95.8869 87.274 95.0779C86.9221 94.4084 86.3249 93.9156 85.6582 93.632C85.0286 93.4228 84.3619 93.5622 83.797 93.9481C83.4127 94.1946 83.0933 94.5479 82.885 94.9338C82.709 95.3569 82.6396 95.78 82.6766 96.2356L81.4497 96.5518C81.3432 95.8451 81.4497 95.143 81.7321 94.5061C82.0423 93.9109 82.5331 93.3809 83.1303 93.0276ZM87.4824 94.5804L88.0101 95.4266L83.2739 98.458L82.7461 97.6118L87.4824 94.5804Z" fill="white"/>
<path d="M79.3059 95.3201L81.9032 102.475L80.8523 102.861L80.2226 101.136L80.468 101.313C80.468 101.559 80.4309 101.806 80.3615 102.052C80.2921 102.262 80.2226 102.475 80.0791 102.685C79.9402 102.894 79.7643 103.108 79.5883 103.247C79.38 103.424 79.167 103.531 78.9216 103.633C78.7133 103.74 78.4633 103.81 78.2179 103.842L77.7966 102.75C78.079 102.713 78.3568 102.643 78.6392 102.503C78.9216 102.364 79.167 102.15 79.3429 101.904C79.5189 101.657 79.6254 101.411 79.6578 101.095C79.6948 100.811 79.6948 100.532 79.6578 100.248C79.6207 99.9648 79.5189 99.6858 79.4124 99.4022L78.116 95.8082L79.3059 95.3201Z" fill="white"/>
</g>
<defs>
<clipPath id="clip0_1985_6719">
<rect width="74.0769" height="72.6923" fill="white" transform="translate(30.4614 31.1543)"/>
</clipPath>
</defs>
</svg>
