<svg width="115" height="115" viewBox="0 0 115 115" fill="none" xmlns="http://www.w3.org/2000/svg">
<circle cx="57.5" cy="57.5" r="57.5" fill="#F1F2F2"/>
<g clip-path="url(#clip0_348_2089)">
<path d="M57.6612 44.2822C52.1475 44.2822 47.6759 48.753 47.6759 54.2658C47.6759 59.7785 52.1475 64.2493 57.6612 64.2493C63.175 64.2493 67.6466 59.7785 67.6466 54.2658C67.619 48.7255 63.1475 44.2822 57.6612 44.2822ZM57.6612 59.6606C54.6802 59.6606 52.2655 57.2463 52.2655 54.2658C52.2655 51.2852 54.6802 48.871 57.6612 48.871C60.6423 48.871 63.057 51.2852 63.057 54.2658C63.057 57.2188 60.6423 59.6606 57.6612 59.6606Z" fill="black"/>
<path d="M62.1917 68.0947H53.1306V72.1172H62.1917V68.0947Z" fill="black"/>
<path d="M33.16 55.0403C33.101 55.697 32.8611 56.3222 32.4167 56.8569C32.0273 57.3052 31.4925 57.5726 30.8947 57.5726L30.8632 56.4716C31.2211 56.4401 31.5475 56.2632 31.756 55.9643C32.0234 55.638 32.1728 55.2487 32.2043 54.8319C32.2633 54.4741 32.2043 54.0887 32.0549 53.7584C31.9054 53.4911 31.6655 53.3102 31.3706 53.2827C31.2211 53.2512 31.0717 53.2827 30.9222 53.3416C30.7452 53.4596 30.6233 53.6405 30.5329 53.8174C30.4149 54.0573 30.234 54.4426 30.0255 54.9499C29.8486 55.3981 29.6362 55.8149 29.4002 56.2317C29.2508 56.4991 29.0109 56.7075 28.7435 56.8569C28.5036 56.9749 28.2086 57.0063 27.9372 56.9749C27.5794 56.9434 27.2529 56.7979 26.9816 56.5581C26.7141 56.2907 26.5332 55.9604 26.4467 55.6026C26.3287 55.1858 26.2973 54.7375 26.3563 54.2932C26.4153 53.8489 26.5332 53.4281 26.7456 53.0113C26.9226 52.685 27.1939 52.3861 27.5204 52.1777C27.8193 51.9693 28.1771 51.8789 28.5626 51.8789L28.6215 52.9799C28.2951 52.9799 27.9648 53.1293 27.7563 53.3692C27.5164 53.668 27.3395 54.0258 27.308 54.4112C27.249 54.769 27.2765 55.1268 27.3985 55.4532C27.4968 55.7284 27.7367 55.9053 28.0041 55.9368C28.1535 55.9683 28.303 55.9368 28.421 55.8464C28.5704 55.697 28.7199 55.5475 28.8103 55.3391C28.9283 55.0993 29.1092 54.7139 29.2862 54.2381C29.4356 53.7899 29.6755 53.3731 29.9115 52.9563C30.0609 52.6889 30.3008 52.4805 30.5958 52.3311C30.8632 52.2131 31.1621 52.1817 31.461 52.2131C32.0273 52.2721 32.5347 52.571 32.8336 53.0782C33.1914 53.6719 33.2819 54.3561 33.16 55.0403Z" fill="black"/>
<path d="M34.8 48.218C34.741 48.6072 34.6505 48.9611 34.5325 49.3189C34.4145 49.6453 34.2336 49.9441 33.9977 50.184C33.7892 50.4239 33.4903 50.5733 33.1639 50.6008C32.8965 50.6323 32.6291 50.6323 32.3577 50.5418C32.0903 50.4514 31.8504 50.3649 31.524 50.2744L26.0377 48.3674L26.3956 47.3529L31.8189 49.2285C32.0863 49.3189 32.2672 49.3779 32.4442 49.4369C32.5937 49.4959 32.7706 49.4959 32.9516 49.4684C33.2504 49.4094 33.4864 49.2285 33.6083 48.9611C33.7578 48.6348 33.8758 48.2455 33.9347 47.8877L34.8 48.218ZM28.126 50.4514L27.2923 50.1525L28.6923 46.071L29.5261 46.3699L28.126 50.4514Z" fill="black"/>
<path d="M35.2168 47.3532L29.5851 44.2233L30.0334 43.3897L31.406 44.1329L31.1385 44.1643C30.9891 44.0149 30.8986 43.8379 30.8121 43.6571C30.7217 43.4801 30.6627 43.2993 30.6627 43.0909C30.6312 42.8825 30.6312 42.6741 30.6627 42.4342C30.6941 42.2258 30.7806 42.0174 30.8711 41.809C30.9616 41.6321 31.0795 41.4512 31.1975 41.3018L32.0627 41.7775C31.8858 41.9545 31.7638 42.1668 31.6734 42.4027C31.5829 42.6426 31.5239 42.91 31.5554 43.1774C31.5869 43.4172 31.6734 43.6531 31.7953 43.8615C31.9133 44.0699 32.0942 44.2508 32.2712 44.3963C32.4481 44.5457 32.6605 44.6951 32.8965 44.8131L35.7281 46.3938L35.2168 47.3532Z" fill="black"/>
<path d="M39.0631 41.9581C38.7052 42.4064 38.1979 42.7328 37.6316 42.9136C37.0967 43.063 36.5579 43.063 36.0231 42.9451C35.4253 42.7681 34.8904 42.4693 34.4421 42.0525C33.9662 41.6632 33.6083 41.1599 33.3684 40.5937C33.16 40.0865 33.101 39.5517 33.1915 38.9855C33.3094 38.4193 33.5493 37.8845 33.9347 37.4638C34.2926 37.0155 34.8 36.6892 35.3663 36.5083C35.9011 36.3589 36.4399 36.3313 36.9748 36.4768C38.1389 36.8346 39.1221 37.6997 39.6294 38.8007C39.8379 39.3079 39.9283 39.8741 39.8379 40.4089C39.7199 41.0066 39.4524 41.5413 39.0631 41.9581ZM38.3198 41.3015C38.7367 40.8847 38.9176 40.3185 38.7957 39.7522C38.6462 39.1546 38.2883 38.6198 37.8125 38.2305C37.3641 37.8137 36.7978 37.5149 36.1725 37.4559C35.6062 37.4245 35.0713 37.6958 34.7134 38.1715C34.446 38.4704 34.2651 38.8282 34.2061 39.2135C34.1746 39.5714 34.2376 39.9292 34.4145 40.2555C34.623 40.6448 34.8904 40.9712 35.2208 41.2386C35.6691 41.6868 36.2354 41.9542 36.8607 42.0132C37.4231 41.9896 37.9619 41.7497 38.3198 41.3015Z" fill="black"/>
<path d="M41.5957 39.0096L38.0208 33.6463L38.8271 33.1391L39.7827 34.5703L39.8732 34.5114L42.4964 38.4159L41.5957 39.0096ZM45.4105 36.4774L43.6211 33.7957C43.4717 33.5559 43.2632 33.3199 43.0548 33.1115C42.8778 32.9031 42.6379 32.7537 42.398 32.6358C42.1581 32.5178 41.9222 32.4863 41.6547 32.4863C41.3558 32.5178 41.0884 32.6358 40.8485 32.7852C40.6401 32.9346 40.4592 33.084 40.3412 33.2924C40.2232 33.4694 40.1327 33.7092 40.1013 33.9491C40.0698 34.2165 40.1013 34.4838 40.1917 34.7237C40.2822 35.0501 40.4316 35.3489 40.6401 35.6163L39.9243 35.8247C39.5979 35.3764 39.3895 34.8417 39.3265 34.303C39.2675 33.8272 39.3265 33.3475 39.535 32.9031C39.7749 32.4549 40.1013 32.0695 40.5496 31.8022C40.8485 31.5938 41.1749 31.4443 41.5328 31.3854C41.8317 31.3264 42.1306 31.3539 42.4256 31.4168C42.693 31.4758 42.9604 31.5938 43.2003 31.7746C43.4402 31.9241 43.6487 32.1325 43.8571 32.3409C44.0341 32.5178 44.1835 32.7301 44.333 32.9661L46.2994 35.9466L45.4105 36.4774Z" fill="black"/>
<path d="M49.7052 34.8374C49.1979 35.0144 48.6316 35.0458 48.0967 34.8964C47.5894 34.747 47.141 34.4482 46.7871 34.0628C45.9809 33.1388 45.5955 31.9749 45.6859 30.7559C45.7449 30.2212 45.9258 29.7139 46.2522 29.2971C46.5787 28.8803 47.0585 28.554 47.5619 28.4046C48.0692 28.2276 48.6355 28.1962 49.1704 28.3456C49.6777 28.495 50.0946 28.7938 50.4525 29.2106C51.1957 30.1347 51.5851 31.3261 51.5261 32.5175C51.4946 33.0523 51.3177 33.532 51.0188 33.9763C50.6884 34.3616 50.2401 34.6566 49.7052 34.8374ZM49.5243 33.8544C49.8822 33.764 50.2086 33.528 50.4485 33.2292C50.657 32.9304 50.7474 32.5726 50.7749 32.2147C50.7749 31.7979 50.7159 31.3497 50.5665 30.9643C50.4485 30.5475 50.2401 30.1583 49.9687 29.8319C49.7603 29.5331 49.4614 29.3247 49.135 29.2067C48.7771 29.0887 48.3917 29.1163 48.0613 29.2382C47.7034 29.3561 47.377 29.5645 47.1371 29.8948C46.9287 30.1936 46.8107 30.5515 46.8107 30.9368C46.8107 31.7704 47.0781 32.604 47.5855 33.2921C47.8254 33.591 48.1203 33.7994 48.4507 33.9173C48.781 34.0038 49.1664 34.0038 49.5243 33.8544ZM50.6884 37.5191C50.362 37.6371 50.0316 37.6685 49.7052 37.6685C49.3788 37.6685 49.0209 37.6095 48.722 37.4916C48.3956 37.3736 48.0967 37.1927 47.8293 36.9568L48.604 36.1822C48.8439 36.4221 49.1389 36.5715 49.4693 36.6305C49.7681 36.6894 50.0946 36.6619 50.3935 36.54C50.7199 36.4496 51.0502 36.2726 51.2862 36.0053C51.4946 35.7654 51.6126 35.498 51.6441 35.1992C51.6755 34.8099 51.6126 34.456 51.4946 34.0982L50.9598 32.431L51.0778 32.3995L49.5833 27.9209L50.476 27.6221L52.5014 33.7915C52.5604 33.9684 52.5919 34.1179 52.6509 34.2673C52.6823 34.4167 52.7099 34.5936 52.7413 34.7431C52.8003 35.1599 52.7728 35.5767 52.6233 35.9659C52.4739 36.3238 52.234 36.6501 51.939 36.89C51.5222 37.1613 51.1328 37.4011 50.6884 37.5191Z" fill="black"/>
<path d="M58.5264 33.5241C57.9286 33.5241 57.3623 33.3471 56.8865 33.0483C56.4381 32.7494 56.0802 32.3051 55.8718 31.8254C55.6319 31.2592 55.5454 30.6615 55.5454 30.0678C55.5454 29.474 55.6948 28.8449 55.9623 28.3101C56.2022 27.8343 56.5876 27.4175 57.0359 27.1462C58.1096 26.58 59.4192 26.639 60.4338 27.2956C60.9097 27.622 61.2401 28.1292 61.3895 28.6955L60.3158 28.9943C60.1979 28.6365 59.9894 28.3376 59.6905 28.1017C59.3916 27.8933 59.0338 27.7754 58.6483 27.7754C57.8736 27.7164 57.1578 28.1646 56.8904 28.8763C56.7409 29.2656 56.6505 29.6824 56.623 30.0992C56.5915 30.7244 56.7409 31.3221 57.0713 31.8569C57.3977 32.3051 57.9365 32.5725 58.5028 32.541C58.8607 32.5725 59.2461 32.4821 59.545 32.2737C59.8439 32.0653 60.0799 31.7979 60.2018 31.4401L61.2754 31.7389C61.067 32.3051 60.6777 32.7534 60.2018 33.0797C59.7181 33.4375 59.1242 33.583 58.5264 33.5241Z" fill="black"/>
<path d="M64.4297 34.4796C63.8634 34.3302 63.3561 34.0314 62.9707 33.6146C62.6128 33.1978 62.3729 32.6905 62.2864 32.1558C62.1959 31.5581 62.2274 30.9329 62.4044 30.3392C62.5538 29.7415 62.8527 29.2067 63.2696 28.7309C63.6275 28.3141 64.1033 28.0153 64.6421 27.8659C65.2084 27.7165 65.7748 27.7479 66.3411 27.8973C66.9074 28.0468 67.4147 28.3456 67.8316 28.7624C68.1895 29.1792 68.4294 29.655 68.5159 30.2212C68.6064 30.8189 68.5749 31.4441 68.3979 32.0378C68.2485 32.6355 67.9496 33.1702 67.5327 33.646C67.1748 34.0628 66.699 34.3617 66.1602 34.5111C65.5624 34.6566 64.9646 34.629 64.4297 34.4796ZM64.6972 33.4966C65.232 33.705 65.8613 33.6146 66.3057 33.2568C66.7815 32.8675 67.1119 32.3327 67.2613 31.735C67.4698 31.1374 67.4698 30.5122 67.2613 29.9184C67.0529 29.3837 66.577 28.9944 66.0107 28.8764C65.6214 28.7585 65.236 28.7585 64.8466 28.8764C64.5202 28.9944 64.2213 29.2028 63.9814 29.5016C63.7415 29.828 63.5331 30.2173 63.4465 30.6341C63.2381 31.2317 63.2381 31.8569 63.4465 32.4507C63.6825 32.9894 64.1308 33.3747 64.6972 33.4966Z" fill="black"/>
<path d="M68.6887 35.7616L72.3265 30.009C72.417 29.8596 72.5035 29.7416 72.6254 29.5922C72.7434 29.4428 72.8653 29.3248 72.9833 29.2029C73.1328 29.085 73.2822 29.026 73.4592 28.9631C73.6361 28.9041 73.8485 28.9041 74.057 28.9316C74.2339 28.9631 74.4148 29.0221 74.5643 29.1086C74.7137 29.199 74.8632 29.2855 75.0126 29.376L75.6969 29.8242L75.2486 30.5674L74.5918 30.1506C74.3834 30.0012 74.1159 29.9422 73.876 29.9736C73.6361 30.0326 73.4277 30.2135 73.3097 30.4219L69.5854 36.3239L68.6887 35.7616ZM70.7456 30.4848L71.2214 29.7416L74.4699 31.7981L73.994 32.5413L70.7456 30.4848ZM71.8782 37.7867L75.516 32.034C75.6065 31.8846 75.693 31.7667 75.8149 31.6172C75.9329 31.4678 76.0548 31.3499 76.1728 31.228C76.3222 31.11 76.4717 31.051 76.6487 30.9881C76.8256 30.9291 77.038 30.9291 77.2464 30.9566C77.4234 30.9881 77.6043 31.0471 77.7538 31.1336C77.9032 31.224 78.0527 31.3105 78.2021 31.401L78.8864 31.8492L78.4105 32.5924L77.7852 32.1756C77.5768 32.0262 77.3094 31.9672 77.0695 31.9986C76.8296 32.0576 76.6211 32.2385 76.5032 32.4469L72.7788 38.3489L71.8782 37.7867ZM73.935 32.5137L74.4109 31.7706L77.6594 33.8271L77.211 34.5702L73.935 32.5137Z" fill="black"/>
<path d="M76.0234 41.7224C75.634 41.3056 75.3391 40.7669 75.2172 40.2007C75.0992 39.6659 75.1582 39.0997 75.3352 38.5925C75.5436 38.0263 75.9015 37.519 76.3773 37.1022C76.8257 36.654 77.392 36.3591 77.9859 36.1467C78.5207 35.9973 79.0595 35.9973 79.5944 36.1467C80.1292 36.3237 80.6366 36.654 80.9944 37.0708C81.4113 37.4876 81.6787 38.0263 81.7692 38.5925C81.8596 39.1587 81.7692 39.7249 81.5018 40.2007C81.2029 40.7984 80.7585 41.3331 80.2511 41.7499L79.5354 40.9439L79.8343 40.6765C80.4006 40.1417 80.727 39.6345 80.8175 39.1272C80.8764 38.5925 80.6995 38.0852 80.3101 37.696C79.9522 37.2477 79.4174 37.0118 78.8196 37.0118C78.2847 37.0432 77.7184 37.3106 77.1206 37.8454C76.6133 38.2347 76.2869 38.8009 76.165 39.4261C76.106 39.9923 76.283 40.5271 76.6723 40.9163C76.9397 41.2152 77.2701 41.4236 77.628 41.5415C77.9859 41.632 78.3713 41.632 78.7606 41.5101L79.1775 42.4931C78.6112 42.7015 78.0134 42.7015 77.4471 42.5521C76.9161 42.497 76.4088 42.1667 76.0234 41.7224ZM76.7077 37.8454L77.333 37.2792L80.554 40.8259L79.9286 41.3921L76.7077 37.8454Z" fill="black"/>
<path d="M79.6573 47.0263C79.3899 46.5191 79.2404 45.9529 79.2679 45.3591C79.2994 44.8244 79.4764 44.2857 79.8028 43.8374C80.1607 43.3302 80.6366 42.9448 81.2029 42.6735C81.7692 42.3747 82.367 42.1978 83.0198 42.1978C83.5547 42.1978 84.0935 42.3157 84.5693 42.6146C85.0452 42.9134 85.4346 43.3577 85.702 43.865C85.9694 44.3722 86.1189 44.9659 86.0599 45.5322C86.0009 46.0984 85.761 46.6056 85.4031 47.0224C84.9547 47.5296 84.3884 47.915 83.7946 48.1863L83.2873 47.2308L83.6137 47.0539C84.298 46.696 84.7778 46.2792 84.9862 45.8035C85.1947 45.3277 85.1632 44.7615 84.8682 44.3132C84.6283 43.806 84.1839 43.4206 83.6176 43.2712C83.0827 43.1532 82.4535 43.2712 81.7692 43.6605C81.2029 43.9003 80.727 44.3447 80.4281 44.9109C80.2197 45.4181 80.2511 46.0119 80.5461 46.4916C80.7231 46.8494 80.9944 47.1482 81.3209 47.3566C81.6473 47.5336 82.0366 47.6555 82.3945 47.624L82.544 48.6975C81.9462 48.7289 81.3523 48.607 80.845 48.2807C80.3141 48.0094 79.9287 47.5611 79.6573 47.0263ZM81.3287 43.4796L82.072 43.0903L84.2468 47.3212L83.4721 47.7105L81.3287 43.4796Z" fill="black"/>
<path d="M79.154 52.7751L88.3921 51.6741L88.5101 52.6296L83.8025 53.1958L83.834 53.3137L79.3034 53.8485L79.154 52.7751ZM82.1625 55.3977C82.0721 54.863 82.1625 54.2968 82.43 53.8171C82.6974 53.3688 83.0553 52.9835 83.5312 52.7436C84.6048 52.1774 85.8279 52.028 86.9881 52.3268C87.4954 52.4448 87.9437 52.7436 88.2977 53.1014C88.6556 53.5182 88.864 54.0255 88.923 54.5602C89.0134 55.095 88.923 55.6612 88.6556 56.1409C88.4157 56.6167 88.0303 57.006 87.5819 57.2733C86.5397 57.871 85.2852 58.0165 84.125 57.6901C83.6177 57.5407 83.1418 57.2419 82.7839 56.8565C82.43 56.4712 82.2215 55.964 82.1625 55.3977ZM83.1182 55.1618C83.1497 55.5511 83.2952 55.8775 83.5665 56.1763C83.834 56.4437 84.1643 56.6246 84.5222 56.6835C85.356 56.8605 86.2212 56.7425 86.9645 56.3847C87.2909 56.2078 87.5623 55.9679 87.7392 55.6415C87.9162 55.3152 87.9791 54.8984 87.9162 54.5406C87.8847 54.1827 87.7392 53.8249 87.4993 53.5575C87.2594 53.2902 86.933 53.1093 86.5751 53.0503C85.7414 52.8734 84.8447 52.9913 84.0699 53.3491C83.7435 53.4986 83.4722 53.7659 83.2952 54.0648C83.1182 54.3872 83.0553 54.7725 83.1182 55.1618Z" fill="black"/>
<path d="M82.1939 60.8519C82.2254 60.4351 82.3709 60.0458 82.6108 59.688C82.8192 59.4206 83.0867 59.1808 83.417 59.0628C84.0148 58.8229 84.6991 58.9134 85.234 59.2397C85.4739 59.3892 85.6508 59.629 85.7688 59.8649C85.9183 60.1323 86.0087 60.4312 86.0363 60.7575C86.0677 61.1153 86.0952 61.4417 86.1267 61.7995C86.1267 62.1888 86.1582 62.5741 86.1267 62.9634V64.0644L85.9497 63.6476C86.3981 63.738 86.8425 63.679 87.2318 63.4706C87.5307 63.2622 87.7391 62.873 87.7981 62.3068C87.8571 61.9489 87.7981 61.5911 87.6802 61.2648C87.5307 60.9384 87.2318 60.6671 86.9054 60.5491L87.3537 59.5936C87.8611 59.802 88.2779 60.1913 88.5454 60.6671C88.8128 61.2333 88.9033 61.8585 88.7853 62.4837C88.7263 62.9909 88.5454 63.4982 88.2779 63.9425C88.038 64.3318 87.6526 64.5992 87.2043 64.7171C86.9959 64.7761 86.756 64.8076 86.5475 64.8076C86.3076 64.8076 86.0716 64.7761 85.8317 64.7486L81.8675 64.2138L81.9855 63.2898L83.5075 63.4982L83.3305 63.7066C82.8822 63.4392 82.5243 63.0224 82.2883 62.5427C82.131 61.9568 82.072 61.3906 82.1939 60.8519ZM83.0552 61.1193C82.9962 61.4456 83.0237 61.8034 83.1142 62.1337C83.2047 62.4011 83.3541 62.6685 83.5625 62.8769C83.7395 63.0853 83.9794 63.2347 84.2468 63.2937C84.4553 63.3841 84.6637 63.4431 84.9036 63.4706C85.1435 63.4982 85.3205 63.5296 85.4699 63.5611L85.2615 63.9189C85.2615 63.5611 85.2615 63.2347 85.2615 62.8769C85.2615 62.5191 85.2615 62.2202 85.2615 61.9214C85.2615 61.654 85.23 61.3866 85.2025 61.1153C85.171 60.9384 85.1121 60.7575 85.0531 60.6081C84.9941 60.4587 84.9036 60.3093 84.7542 60.1913C84.6047 60.0733 84.4553 60.0144 84.2783 59.9829C84.1013 59.9514 83.9204 59.9829 83.771 60.0419C83.594 60.1323 83.4446 60.2503 83.3226 60.3997C83.1771 60.616 83.0867 60.8833 83.0552 61.1193Z" fill="black"/>
<path d="M81.5057 65.2637L87.5858 67.4381L87.2594 68.3307L85.8003 67.8235L86.0402 67.733C86.1896 67.8824 86.3391 68.0319 86.4571 68.1813C86.5751 68.3307 86.6655 68.5076 86.7245 68.6885C86.7835 68.8969 86.8149 69.1053 86.8149 69.3137C86.8149 69.5221 86.7835 69.762 86.7245 69.9704C86.6655 70.1788 86.575 70.3596 86.4846 70.5366L85.5289 70.2102C85.6784 70.0018 85.7688 69.762 85.8278 69.526C85.8868 69.2587 85.8868 68.9913 85.7964 68.72C85.7374 68.4801 85.6194 68.2717 85.4385 68.0948C85.289 67.9178 85.0806 67.7684 84.8722 67.6465C84.6637 67.5285 84.4238 67.4067 84.1879 67.3201L81.1478 66.2192L81.5057 65.2637Z" fill="black"/>
<path d="M78.2572 72.2081C78.3752 71.8502 78.5246 71.4924 78.7331 71.1661C78.91 70.8672 79.1499 70.5998 79.4174 70.4229C79.6848 70.246 79.9837 70.1555 80.3101 70.1555C80.5775 70.1555 80.845 70.246 81.0849 70.3639C81.3248 70.4819 81.5607 70.6313 81.8596 70.7807L86.8975 73.6433L86.3902 74.5673L81.3838 71.7048C81.1439 71.5868 80.9669 71.4649 80.786 71.3784C80.6365 71.288 80.4596 71.2604 80.3101 71.229C80.0112 71.229 79.7438 71.3784 79.5943 71.5868C79.3859 71.8856 79.205 72.2434 79.087 72.6013L78.2572 72.2081ZM85.234 71.225L86.0087 71.6733L83.8614 75.4284L83.0867 74.9802L85.234 71.225Z" fill="black"/>
<path d="M74.7097 76.3202L77.093 78.4947C77.3014 78.7031 77.5413 78.8839 77.8088 79.0294C78.0487 79.1788 78.2846 79.2693 78.5521 79.3283C78.792 79.3872 79.0594 79.3872 79.2954 79.2968C79.5628 79.2064 79.8302 79.0294 80.0111 78.7896C80.1881 78.6126 80.31 78.4003 80.4005 78.1644C80.4909 77.956 80.5185 77.7161 80.4909 77.4802C80.4595 77.2128 80.3729 76.973 80.2235 76.737C80.0465 76.4696 79.8342 76.2023 79.5982 75.9939L80.2235 75.636C80.6404 75.9939 80.9668 76.4696 81.1792 76.9769C81.3561 77.4251 81.3876 77.9009 81.2972 78.3767C81.1792 78.8839 80.9393 79.3322 80.5814 79.6861C80.3415 79.9535 80.0465 80.1933 79.7162 80.3427C79.4487 80.4607 79.1499 80.5197 78.8234 80.5197C78.5245 80.5197 78.2571 80.4607 77.9897 80.3703C77.7223 80.2798 77.4548 80.1619 77.2149 79.981C77.0065 79.8316 76.798 79.6822 76.5896 79.5052L73.9664 77.0909L74.7097 76.3202ZM77.8127 72.9504L82.5517 77.3032L81.8949 78.0189L80.6443 76.855L80.5539 76.9454L77.0655 73.7565L77.8127 72.9504Z" fill="black"/>
<path d="M70.777 79.088C71.2529 78.7616 71.8192 78.5807 72.3855 78.5532C72.9204 78.5532 73.4592 78.6712 73.9351 78.9425C74.4699 79.2689 74.9183 79.6857 75.2171 80.2244C75.575 80.7591 75.7835 81.3568 75.8739 81.982C75.9329 82.5168 75.8425 83.083 75.6065 83.5627C75.3391 84.0699 74.9497 84.4867 74.4424 84.7856C73.9665 85.1119 73.4002 85.2928 72.8024 85.2928C72.2361 85.2928 71.7012 85.0844 71.2529 84.758C70.718 84.3688 70.2697 83.834 69.9433 83.2363L70.836 82.6701L71.0445 82.9965C71.4928 83.6531 71.9372 84.0699 72.417 84.2469C72.9243 84.3963 73.4907 84.3058 73.9075 83.9795C74.4149 83.7121 74.7413 83.2049 74.8317 82.6386C74.8907 82.1039 74.7137 81.5062 74.2969 80.822C73.998 80.2558 73.4907 79.839 72.9243 79.5992C72.3895 79.4222 71.8232 79.5402 71.3434 79.8665C71.0169 80.0749 70.7456 80.3738 70.5686 80.7001C70.4192 81.058 70.3602 81.4158 70.3916 81.8011L69.3494 82.0685C69.259 81.4708 69.3494 80.8771 69.5893 80.3384C69.8528 79.8351 70.2697 79.3868 70.777 79.088ZM74.4738 80.4013L74.9222 81.1169L70.8989 83.6806L70.4506 82.965L74.4738 80.4013Z" fill="black"/>
<path d="M67.5286 81.0269L69.7349 87.0783L68.8421 87.4047L68.3073 85.9459L68.5157 86.0953C68.5157 86.3037 68.4843 86.5121 68.4253 86.7205C68.3663 86.8974 68.3073 87.0783 68.1854 87.2553C68.0674 87.4322 67.9179 87.6131 67.7685 87.731C67.5915 87.8805 67.4106 87.9709 67.2022 88.0574C67.0252 88.1478 66.8128 88.2068 66.6044 88.2343L66.2465 87.3103C66.4864 87.2789 66.7224 87.2199 66.9623 87.1019C67.2022 86.984 67.4106 86.8031 67.5601 86.5947C67.7095 86.3863 67.8 86.1779 67.8275 85.9105C67.8589 85.6706 67.8589 85.4347 67.8275 85.1949C67.796 84.955 67.7095 84.7191 67.619 84.4792L66.5179 81.4397L67.5286 81.0269Z" fill="black"/>
</g>
<defs>
<clipPath id="clip0_348_2089">
<rect width="62.9245" height="61.478" fill="white" transform="translate(26.0377 26.761)"/>
</clipPath>
</defs>
</svg>
