<svg width="115" height="127" viewBox="0 0 115 127" fill="none" xmlns="http://www.w3.org/2000/svg">
<rect width="115" height="126.5" fill="black"/>
<g clip-path="url(#clip0_508_2558)">
<path d="M34.3417 40.9669C36.5982 41.7749 38.2848 43.7462 38.2848 46.1193C38.2848 49.1294 35.7318 51.5579 32.2057 51.5579H22.2112V31.2993H29.9213C30.7832 31.2993 31.6126 31.3593 32.4142 31.4147C35.3518 31.6179 37.4879 33.7601 37.4879 36.3039C37.4879 38.303 36.1812 40.099 34.3417 40.9669ZM30.3986 35.1497H27.3127V39.4895H30.3986C31.6126 39.4895 32.7107 38.5339 32.7107 37.2919C32.7107 36.0731 31.6126 35.1497 30.3986 35.1497ZM30.6349 47.7352C32.0296 47.7352 33.1555 46.6918 33.1555 45.3898C33.1555 44.0602 32.0296 43.0445 30.6349 43.0445H27.3127V47.7305H30.6349V47.7352Z" fill="white"/>
<path d="M70.2931 51.5579H65.1916V31.2993H70.2931L77.0395 41.7333C77.4102 42.3058 77.7345 42.9106 78.0033 43.5385V31.3039H83.1326V51.5579H78.0033L71.1318 40.99C70.8955 40.6299 70.687 40.2513 70.5016 39.8635L70.2931 39.4249V51.5579Z" fill="white"/>
<path d="M35.426 68.9449H27.2107V76.2671H22.1093V56.0132H36.4639V60.5284H27.2107V64.4342H35.426V68.9449Z" fill="white"/>
<path d="M39.4293 68.1646V56.0132H44.5308V68.4001C44.5308 70.3945 46.1016 72.1028 48.3257 72.1028C50.5497 72.1028 52.1205 70.3945 52.1205 68.4001V56.0132H57.222V68.1646C57.222 72.9661 53.9276 76.7011 48.3257 76.7011C42.7191 76.7011 39.4293 72.9661 39.4293 68.1646Z" fill="white"/>
<path d="M60.6647 61.4794C60.6647 58.2384 63.1575 55.5745 67.93 55.5745C70.7194 55.5745 73.1195 56.4147 75.2278 57.8598L73.152 61.2439C71.5812 60.2005 69.802 59.6234 67.6937 59.6234C66.3315 59.6234 65.085 60.2328 65.085 61.4747C65.085 64.628 76.0294 62.5458 76.0294 70.3021C76.0294 73.6862 72.3226 76.6964 67.8744 76.6964C64.997 76.6964 62.0594 75.653 59.9557 74.2356L62.0038 70.5606C63.5467 71.604 66.1878 72.3843 68.0829 72.3843C69.8622 72.3843 71.1364 71.5763 71.1364 70.3021C71.1364 67.1811 60.6647 69.3233 60.6647 61.4794Z" fill="white"/>
<path d="M93.4375 76.2671H78.9948V56.0132H93.3495V60.413H84.0963V63.9125H91.5424V68.0815H84.0963V71.8996H93.4375V76.2671Z" fill="white"/>
<path d="M50.9992 21.5625C45.0405 21.5625 40.2124 26.3732 40.2124 32.3104C40.2124 38.2477 45.0405 43.0584 50.9992 43.0584C56.9579 43.0584 61.786 38.2477 61.786 32.3104C61.786 26.3732 56.9579 21.5625 50.9992 21.5625ZM50.9992 38.1322C47.7743 38.1322 45.161 35.5284 45.161 32.3151C45.161 29.1018 47.7743 26.4979 50.9992 26.4979C54.2241 26.4979 56.8374 29.1018 56.8374 32.3151C56.8374 35.5284 54.2241 38.1322 50.9992 38.1322Z" fill="white"/>
<path d="M56.8374 47.2227H45.1563V51.5578H56.8374V47.2227Z" fill="white"/>
<path d="M24.2314 89.8867C23.4993 89.8867 22.9016 89.7298 22.429 89.4158C21.9563 89.1019 21.6691 88.6679 21.5625 88.1046L22.429 87.9615C22.5216 88.3124 22.7301 88.594 23.0591 88.8018C23.3881 89.0095 23.7959 89.1157 24.2777 89.1157C24.7504 89.1157 25.1257 89.0141 25.3944 88.8202C25.6678 88.6217 25.8022 88.3539 25.8022 88.0123C25.8022 87.8184 25.7605 87.666 25.6724 87.546C25.5844 87.426 25.4083 87.3105 25.1442 87.209C24.8801 87.1074 24.4816 86.9828 23.958 86.8396C23.3927 86.6873 22.9526 86.5349 22.6328 86.378C22.3131 86.2256 22.0861 86.0502 21.9517 85.847C21.8173 85.6485 21.7478 85.3992 21.7478 85.1083C21.7478 84.7574 21.8498 84.4481 22.049 84.1804C22.2483 83.9126 22.5263 83.7094 22.8784 83.5617C23.2306 83.414 23.6429 83.3401 24.1109 83.3401C24.5789 83.3401 25.0006 83.414 25.3712 83.5663C25.7419 83.7187 26.0431 83.931 26.2701 84.1988C26.4972 84.4712 26.6316 84.7852 26.6733 85.1453L25.8068 85.3022C25.7512 84.9375 25.5659 84.6513 25.26 84.4389C24.9542 84.2265 24.565 84.1157 24.097 84.1111C23.6568 84.0972 23.2954 84.1804 23.0174 84.3604C22.7394 84.5405 22.6004 84.7759 22.6004 85.0714C22.6004 85.233 22.6514 85.3761 22.7487 85.4915C22.8506 85.6069 23.0313 85.7177 23.2954 85.8193C23.5595 85.9209 23.9349 86.0363 24.4214 86.161C24.9959 86.3041 25.4454 86.4611 25.7697 86.618C26.0987 86.7796 26.3304 86.9689 26.4694 87.1859C26.6084 87.4029 26.6779 87.6753 26.6779 87.9984C26.6779 88.5848 26.4601 89.0465 26.0246 89.3789C25.5983 89.7159 24.9959 89.8867 24.2314 89.8867Z" fill="white"/>
<path d="M27.271 84.2404V83.5155H31.3531V84.2404H27.271ZM31.3531 89.7205C31.001 89.7944 30.6581 89.8221 30.3198 89.8082C29.9816 89.7944 29.6758 89.7205 29.407 89.5913C29.1383 89.462 28.9391 89.2588 28.8001 88.9818C28.6889 88.751 28.6286 88.5202 28.6193 88.2847C28.6101 88.0492 28.6054 87.7815 28.6054 87.4768V81.7935H29.4487V87.4398C29.4487 87.6984 29.4534 87.9153 29.458 88.0908C29.4626 88.2662 29.5043 88.4186 29.5739 88.5525C29.7129 88.811 29.9306 88.9634 30.2364 89.0142C30.5376 89.0649 30.9129 89.0511 31.3578 88.9772V89.7205H31.3531Z" fill="white"/>
<path d="M32.581 89.7205V83.5155H33.3409V85.0113L33.1926 84.8128C33.2621 84.6281 33.3502 84.4619 33.466 84.305C33.5772 84.148 33.6977 84.0233 33.8274 83.9218C33.9896 83.7786 34.1796 83.6725 34.3927 83.5986C34.6058 83.5247 34.8236 83.4786 35.046 83.4647C35.2638 83.4509 35.463 83.4693 35.6437 83.5155V84.3096C35.4167 84.2542 35.1711 84.2403 34.9024 84.268C34.6336 84.3003 34.3834 84.4065 34.161 84.5912C33.9525 84.7528 33.7996 84.9421 33.693 85.1683C33.5911 85.3945 33.5216 85.63 33.4845 85.8793C33.4521 86.1286 33.4336 86.3779 33.4336 86.6226V89.7205H32.581Z" fill="white"/>
<path d="M39.2254 89.8914C38.6046 89.8914 38.0763 89.7529 37.6408 89.4712C37.2006 89.1942 36.867 88.8064 36.6307 88.3124C36.3944 87.8184 36.2785 87.2505 36.2785 86.6134C36.2785 85.9625 36.399 85.39 36.6353 84.9006C36.8716 84.4112 37.2145 84.028 37.6547 83.7556C38.0949 83.4832 38.6185 83.3447 39.2254 83.3447C39.8463 83.3447 40.3792 83.4832 40.8194 83.7602C41.2596 84.0372 41.5932 84.4204 41.8295 84.9144C42.0612 85.4038 42.177 85.9717 42.177 86.6134C42.177 87.2644 42.0612 87.8369 41.8248 88.3263C41.5885 88.8203 41.2503 89.2035 40.8101 89.4805C40.3699 89.7575 39.8371 89.8914 39.2254 89.8914ZM39.2254 89.0788C39.9158 89.0788 40.4302 88.8526 40.7684 88.3909C41.1067 87.9338 41.2781 87.3383 41.2781 86.6088C41.2781 85.8563 41.1067 85.2607 40.7684 84.8175C40.4302 84.3743 39.9158 84.1527 39.2254 84.1527C38.7621 84.1527 38.3775 84.2589 38.0763 84.4666C37.7752 84.6744 37.5481 84.9652 37.3998 85.3346C37.2516 85.7039 37.1774 86.1287 37.1774 86.6134C37.1774 87.3613 37.3489 87.9569 37.6964 88.4094C38.0439 88.8618 38.549 89.0788 39.2254 89.0788Z" fill="white"/>
<path d="M43.4373 89.7206V83.5156H44.2064V85.0438H44.2945V89.7206H43.4373ZM47.9411 89.7206V86.5535C47.9411 86.2072 47.9086 85.8933 47.8438 85.6024C47.7789 85.3116 47.6723 85.0622 47.5287 84.8453C47.385 84.6283 47.1997 84.4621 46.968 84.342C46.741 84.222 46.463 84.162 46.134 84.162C45.8328 84.162 45.5687 84.2127 45.3417 84.3189C45.1146 84.4251 44.92 84.5682 44.7671 84.7622C44.6096 84.9561 44.4937 85.1915 44.415 85.4685C44.3362 85.7455 44.2945 86.0595 44.2945 86.4104L43.6968 86.2765C43.6968 85.6393 43.808 85.1084 44.0304 84.6744C44.2528 84.2404 44.5586 83.9127 44.9524 83.6911C45.3463 83.4694 45.7957 83.3586 46.3008 83.3586C46.6715 83.3586 47.0005 83.414 47.2785 83.5295C47.5565 83.6449 47.7928 83.8019 47.9874 83.9958C48.182 84.1897 48.3395 84.4159 48.4554 84.6652C48.5758 84.9145 48.6593 85.1823 48.7149 85.4639C48.7705 85.7455 48.7936 86.0272 48.7936 86.3042V89.716H47.9411V89.7206Z" fill="white"/>
<path d="M52.709 89.8913C52.1298 89.8913 51.634 89.7482 51.2216 89.4574C50.8092 89.1665 50.4941 88.7741 50.2764 88.2801C50.0586 87.7861 49.9474 87.2274 49.9474 86.6088C49.9474 85.9901 50.054 85.4361 50.2717 84.9421C50.4895 84.4481 50.8 84.0603 51.2077 83.7695C51.6155 83.4832 52.102 83.3401 52.6719 83.3401C53.2557 83.3401 53.7469 83.4832 54.15 83.7648C54.5485 84.0465 54.8543 84.4343 55.0581 84.9283C55.262 85.4177 55.3686 85.9809 55.3686 86.6088C55.3686 87.2274 55.2667 87.7815 55.0628 88.2755C54.8589 88.7695 54.5577 89.1665 54.1639 89.4527C53.7654 89.7482 53.2835 89.8913 52.709 89.8913ZM52.7646 92.6476C52.4448 92.6476 52.1298 92.6014 51.824 92.5045C51.5135 92.4121 51.2309 92.2644 50.9668 92.0612C50.7073 91.8581 50.4849 91.5996 50.3088 91.2764L51.078 90.8516C51.2494 91.1979 51.495 91.4426 51.8054 91.5949C52.1205 91.7473 52.4402 91.8212 52.7646 91.8212C53.214 91.8212 53.5801 91.7381 53.8581 91.5719C54.1361 91.4057 54.34 91.161 54.4651 90.8332C54.5902 90.5054 54.655 90.0991 54.6504 89.6143V87.9615H54.7477V83.5109H55.503V89.6282C55.503 89.8036 55.4983 89.9744 55.4891 90.136C55.4798 90.2976 55.4613 90.4592 55.4335 90.6162C55.3593 91.0779 55.2111 91.4611 54.9794 91.7612C54.7477 92.0612 54.4512 92.2829 54.0805 92.426C53.7144 92.5783 53.2742 92.6476 52.7646 92.6476ZM52.797 89.1019C53.2372 89.1019 53.6032 88.9957 53.8905 88.7787C54.1778 88.5663 54.3956 88.2662 54.5346 87.8923C54.6782 87.5137 54.7477 87.0889 54.7477 86.6088C54.7477 86.124 54.6782 85.69 54.5346 85.3207C54.3909 84.9467 54.1778 84.6559 53.8905 84.4435C53.6032 84.2311 53.2418 84.1296 52.8109 84.1296C52.3661 84.1296 51.9954 84.2404 51.7035 84.4574C51.4116 84.6743 51.1938 84.9698 51.0548 85.3484C50.9158 85.7224 50.8463 86.1471 50.8463 86.6134C50.8463 87.0843 50.9204 87.5091 51.0641 87.8877C51.2077 88.2662 51.4255 88.5617 51.7128 88.7787C52 88.9957 52.3614 89.1019 52.797 89.1019Z" fill="white"/>
<path d="M62.0084 89.8913C61.3829 89.8913 60.85 89.7528 60.4191 89.4712C59.9836 89.1942 59.6546 88.8064 59.4322 88.3124C59.2051 87.8184 59.0893 87.2551 59.0847 86.6134C59.0939 85.9624 59.2098 85.3899 59.4414 84.8959C59.6731 84.4065 60.0021 84.0187 60.4376 83.7463C60.8732 83.474 61.3968 83.3354 62.0177 83.3354C62.6478 83.3354 63.1946 83.4878 63.6626 83.7925C64.1305 84.0972 64.4503 84.5174 64.6217 85.0529L63.7923 85.3161C63.644 84.9467 63.4124 84.6559 63.0973 84.4527C62.7822 84.245 62.4161 84.1434 62.0084 84.1434C61.5497 84.1434 61.1744 84.2496 60.8732 84.4573C60.572 84.6651 60.3496 84.9559 60.206 85.3299C60.0623 85.7039 59.9836 86.1286 59.9789 86.6134C59.9882 87.3567 60.1596 87.9523 60.4979 88.4001C60.8361 88.8479 61.3412 89.0741 62.0084 89.0741C62.43 89.0741 62.7915 88.9772 63.088 88.7833C63.3846 88.5894 63.6116 88.3078 63.7645 87.9338L64.6171 88.1877C64.3854 88.7371 64.0471 89.1619 63.6023 89.4481C63.1621 89.7482 62.6293 89.8913 62.0084 89.8913Z" fill="white"/>
<path d="M68.2359 89.8914C67.615 89.8914 67.0867 89.7529 66.6512 89.4712C66.211 89.1942 65.8774 88.8064 65.6411 88.3124C65.4048 87.8184 65.2889 87.2505 65.2889 86.6134C65.2889 85.9625 65.4094 85.39 65.6457 84.9006C65.882 84.4112 66.2249 84.028 66.6651 83.7556C67.1053 83.4832 67.6289 83.3447 68.2359 83.3447C68.8567 83.3447 69.3896 83.4832 69.8298 83.7602C70.27 84.0372 70.6036 84.4204 70.8399 84.9144C71.0716 85.4038 71.1874 85.9717 71.1874 86.6134C71.1874 87.2644 71.0716 87.8369 70.8352 88.3263C70.5989 88.8203 70.2607 89.2035 69.8205 89.4805C69.3803 89.7529 68.8521 89.8914 68.2359 89.8914ZM68.2359 89.0788C68.9262 89.0788 69.4406 88.8526 69.7788 88.3909C70.1171 87.9338 70.2885 87.3383 70.2885 86.6088C70.2885 85.8563 70.1171 85.2607 69.7788 84.8175C69.4406 84.3743 68.9262 84.1527 68.2359 84.1527C67.7725 84.1527 67.3879 84.2589 67.0867 84.4666C66.7856 84.6744 66.5585 84.9652 66.4102 85.3346C66.262 85.7039 66.1878 86.1287 66.1878 86.6134C66.1878 87.3613 66.3593 87.9569 66.7068 88.4094C67.0543 88.8618 67.564 89.0788 68.2359 89.0788Z" fill="white"/>
<path d="M71.9936 84.2404V83.5155H75.6217V84.2404H71.9936ZM73.0732 89.7205V83.0538C73.0732 82.8923 73.0825 82.7353 73.101 82.5783C73.1196 82.4213 73.152 82.2736 73.2076 82.1259C73.2632 81.9827 73.3466 81.8489 73.4624 81.7288C73.5876 81.5903 73.7266 81.4887 73.8795 81.4287C74.0277 81.3641 74.1853 81.3225 74.3474 81.3041C74.5096 81.2856 74.6718 81.2764 74.8293 81.2764H75.6263V81.9874H74.8896C74.5652 81.9874 74.3243 82.0658 74.1667 82.2228C74.0092 82.3798 73.9258 82.6291 73.9258 82.9615V89.7159H73.0732V89.7205ZM75.5475 84.2404V83.5155H79.1756V84.2404H75.5475ZM76.6225 89.7205V83.0538C76.6225 82.8923 76.6318 82.7353 76.6503 82.5783C76.6688 82.4213 76.7013 82.2736 76.7569 82.1259C76.8125 81.9827 76.8959 81.8489 77.0117 81.7288C77.1368 81.5903 77.2758 81.4887 77.4241 81.4287C77.5724 81.3641 77.7299 81.3225 77.8921 81.3041C78.0543 81.2856 78.2164 81.2764 78.374 81.2764H79.1709V81.9874H78.4342C78.1099 81.9874 77.8689 82.0658 77.7114 82.2228C77.5538 82.3798 77.4704 82.6291 77.4704 82.9615V89.7159H76.6225V89.7205Z" fill="white"/>
<path d="M82.4978 89.8913C81.8908 89.8913 81.3672 89.7575 80.9224 89.4897C80.4776 89.2219 80.1347 88.8433 79.8891 88.3586C79.6435 87.8738 79.5184 87.3013 79.5184 86.6457C79.5184 85.9671 79.6389 85.3807 79.8798 84.8867C80.1208 84.3927 80.4637 84.0095 80.9039 83.7417C81.344 83.474 81.863 83.3401 82.4653 83.3401C83.0816 83.3401 83.6052 83.4786 84.0407 83.7602C84.4763 84.0418 84.8053 84.4435 85.0277 84.9698C85.2501 85.4961 85.352 86.1194 85.3335 86.8489H84.467V86.5488C84.4531 85.7454 84.277 85.136 83.9434 84.7251C83.6098 84.3142 83.1233 84.1111 82.4885 84.1111C81.8213 84.1111 81.307 84.3281 80.9502 84.7621C80.5934 85.196 80.4173 85.8101 80.4173 86.6134C80.4173 87.3936 80.5934 87.9985 80.9502 88.4324C81.307 88.8618 81.812 89.0788 82.4653 89.0788C82.9102 89.0788 83.2994 88.9772 83.633 88.7741C83.9666 88.5663 84.2261 88.2708 84.4207 87.8877L85.2084 88.1924C84.9628 88.7325 84.6014 89.1527 84.1241 89.4481C83.6469 89.7436 83.1048 89.8913 82.4978 89.8913ZM80.1208 86.8535V86.1471H84.8794V86.8535H80.1208Z" fill="white"/>
<path d="M89.2395 89.8913C88.6325 89.8913 88.109 89.7575 87.6641 89.4897C87.2193 89.2219 86.8764 88.8433 86.6309 88.3586C86.3853 87.8738 86.2602 87.3013 86.2602 86.6457C86.2602 85.9671 86.3807 85.3807 86.6216 84.8867C86.8625 84.3927 87.2054 84.0095 87.6456 83.7417C88.0858 83.474 88.6047 83.3401 89.2071 83.3401C89.8234 83.3401 90.3469 83.4786 90.7825 83.7602C91.218 84.0418 91.547 84.4435 91.7694 84.9698C91.9918 85.4961 92.0938 86.1194 92.0752 86.8489H91.2088V86.5488C91.1949 85.7454 91.0188 85.136 90.6852 84.7251C90.3516 84.3142 89.8651 84.1111 89.2303 84.1111C88.563 84.1111 88.0487 84.3281 87.6919 84.7621C87.3352 85.196 87.1591 85.8101 87.1591 86.6134C87.1591 87.3936 87.3352 87.9985 87.6919 88.4324C88.0487 88.8618 88.5538 89.0788 89.2071 89.0788C89.6519 89.0788 90.0411 88.9772 90.3747 88.7741C90.7084 88.5663 90.9678 88.2708 91.1624 87.8877L91.9501 88.1924C91.7046 88.7325 91.3432 89.1527 90.8659 89.4481C90.384 89.7436 89.8419 89.8913 89.2395 89.8913ZM86.8579 86.8535V86.1471H91.6165V86.8535H86.8579Z" fill="white"/>
<path d="M21.9008 104.937V95.9762H22.6607V100.648H22.7533V104.937H21.9008ZM24.704 102.352C24.1295 102.352 23.6476 102.209 23.2491 101.918C22.8553 101.627 22.5541 101.235 22.3502 100.741C22.1463 100.247 22.0444 99.6882 22.0444 99.0741C22.0444 98.4462 22.1463 97.883 22.3548 97.3936C22.5587 96.8996 22.8645 96.5118 23.263 96.2302C23.6615 95.9439 24.1526 95.8054 24.7411 95.8054C25.311 95.8054 25.7975 95.9485 26.2053 96.2348C26.613 96.521 26.9235 96.9135 27.1413 97.4075C27.359 97.9015 27.4656 98.4555 27.4656 99.0741C27.4656 99.6928 27.3544 100.251 27.1366 100.745C26.9188 101.239 26.6038 101.632 26.1914 101.923C25.779 102.209 25.2879 102.352 24.704 102.352ZM24.6206 101.567C25.0562 101.567 25.4176 101.456 25.7049 101.239C25.9921 101.022 26.2099 100.722 26.3536 100.348C26.4972 99.9744 26.5713 99.545 26.5713 99.0741C26.5713 98.6078 26.5018 98.1831 26.3582 97.8091C26.2146 97.4352 26.0014 97.1397 25.7095 96.9181C25.4176 96.7011 25.0515 96.5903 24.6067 96.5903C24.1712 96.5903 23.8098 96.6965 23.5271 96.9042C23.2398 97.1166 23.0267 97.4075 22.8831 97.7814C22.7394 98.1554 22.6699 98.5847 22.6699 99.0695C22.6699 99.5497 22.7394 99.9744 22.8831 100.353C23.0267 100.732 23.2398 101.027 23.5271 101.239C23.8098 101.456 24.1758 101.567 24.6206 101.567Z" fill="white"/>
<path d="M30.5191 102.352C30.0511 102.352 29.6572 102.269 29.3375 102.098C29.0225 101.927 28.7815 101.706 28.624 101.424C28.4664 101.147 28.3877 100.842 28.3877 100.51C28.3877 100.173 28.4572 99.882 28.5915 99.6466C28.7259 99.4065 28.9159 99.2126 29.1522 99.0556C29.3885 98.9033 29.6619 98.7832 29.9723 98.7048C30.2874 98.6263 30.6349 98.5616 31.0195 98.5016C31.4041 98.4416 31.7794 98.3908 32.1454 98.3446C32.5115 98.3031 32.8358 98.2569 33.1092 98.2154L32.808 98.4C32.8173 97.786 32.7015 97.3336 32.4513 97.0381C32.201 96.7426 31.7655 96.5949 31.1492 96.5949C30.723 96.5949 30.3615 96.6918 30.0696 96.8811C29.7777 97.075 29.5692 97.3751 29.4487 97.7906L28.624 97.5505C28.7676 96.9965 29.0549 96.5626 29.4812 96.2578C29.9121 95.9531 30.4727 95.8008 31.1585 95.8008C31.7284 95.8008 32.2103 95.907 32.6088 96.1193C33.0073 96.3317 33.2899 96.641 33.4521 97.0427C33.5309 97.2228 33.5772 97.4259 33.6004 97.6475C33.6235 97.8691 33.6328 98.0953 33.6328 98.3262V102.181H32.8775V100.625L33.0953 100.718C32.8822 101.249 32.5578 101.655 32.1084 101.937C31.6728 102.214 31.14 102.352 30.5191 102.352ZM30.6164 101.623C31.0102 101.623 31.3577 101.553 31.6543 101.41C31.9508 101.267 32.1871 101.073 32.3678 100.828C32.5486 100.579 32.6644 100.302 32.72 99.9928C32.7663 99.7943 32.7895 99.5727 32.7941 99.3373C32.7988 99.0972 32.7988 98.9171 32.7988 98.8017L33.1231 98.9679C32.8358 99.0048 32.5208 99.0464 32.1871 99.0833C31.8489 99.1203 31.5199 99.1664 31.1956 99.2172C30.8712 99.268 30.5793 99.3234 30.3152 99.3973C30.1391 99.4481 29.9677 99.5173 29.8009 99.605C29.6341 99.6974 29.4997 99.8128 29.3931 99.9651C29.2866 100.113 29.2356 100.298 29.2356 100.524C29.2356 100.704 29.2819 100.879 29.37 101.045C29.458 101.212 29.6063 101.355 29.8102 101.466C30.014 101.567 30.2828 101.623 30.6164 101.623Z" fill="white"/>
<path d="M35.1433 102.181V95.9762H35.9032V97.472L35.7549 97.2781C35.8244 97.0935 35.9125 96.9273 36.0283 96.7703C36.1395 96.6133 36.26 96.4887 36.3897 96.3871C36.5519 96.244 36.7419 96.1378 36.955 96.0639C37.1682 95.9901 37.3859 95.9439 37.6083 95.93C37.8261 95.9162 38.0254 95.9347 38.2061 95.9808V96.7749C37.979 96.7195 37.7334 96.7057 37.4647 96.7334C37.196 96.7611 36.9457 96.8719 36.7233 97.0565C36.5148 97.2181 36.3619 97.4074 36.2554 97.6336C36.1534 97.8599 36.0839 98.0953 36.0468 98.3446C36.0144 98.5939 35.9959 98.8432 35.9959 99.0879V102.186H35.1433V102.181Z" fill="white"/>
<path d="M38.6046 96.7011V95.9762H42.6867V96.7011H38.6046ZM42.6867 102.181C42.3345 102.255 41.9916 102.283 41.6534 102.269C41.3152 102.255 41.0093 102.181 40.7406 102.052C40.4719 101.923 40.2726 101.72 40.1336 101.443C40.0224 101.212 39.9622 100.981 39.9529 100.745C39.9436 100.51 39.939 100.242 39.939 99.9374V94.2542H40.7823V99.9005C40.7823 100.159 40.7869 100.376 40.7916 100.551C40.7962 100.727 40.8379 100.879 40.9074 101.013C41.0464 101.272 41.2642 101.424 41.57 101.475C41.8712 101.526 42.2465 101.512 42.6913 101.438V102.181H42.6867Z" fill="white"/>
<path d="M43.9099 102.181V95.9763H44.6791V97.5045H44.7671V102.181H43.9099ZM48.4137 102.181V99.0142C48.4137 98.6679 48.3812 98.354 48.3164 98.0631C48.2515 97.7722 48.1449 97.5229 48.0013 97.3059C47.8577 97.089 47.6723 96.9228 47.4406 96.8027C47.2136 96.6827 46.9356 96.6227 46.6066 96.6227C46.3054 96.6227 46.0413 96.6734 45.8143 96.7796C45.5872 96.8858 45.3926 97.0289 45.2397 97.2229C45.0822 97.4168 44.9664 97.6522 44.8876 97.9292C44.8088 98.2062 44.7671 98.5202 44.7671 98.871L44.1694 98.7372C44.1694 98.1 44.2806 97.5691 44.503 97.1351C44.7254 96.7011 45.0312 96.3734 45.4251 96.1517C45.8189 95.9301 46.2684 95.8193 46.7734 95.8193C47.1441 95.8193 47.4731 95.8747 47.7511 95.9902C48.0291 96.1056 48.2654 96.2626 48.46 96.4565C48.6546 96.6504 48.8122 96.8766 48.928 97.1259C49.0485 97.3752 49.1319 97.643 49.1875 97.9246C49.2431 98.2062 49.2663 98.4879 49.2663 98.7649V102.177H48.4137V102.181Z" fill="white"/>
<path d="M53.3623 102.352C52.7553 102.352 52.2317 102.218 51.7869 101.95C51.3421 101.683 50.9992 101.304 50.7536 100.819C50.508 100.334 50.3829 99.762 50.3829 99.1064C50.3829 98.4277 50.5034 97.8414 50.7443 97.3474C50.9853 96.8534 51.3282 96.4702 51.7684 96.2024C52.2085 95.9347 52.7275 95.8008 53.3298 95.8008C53.9461 95.8008 54.4697 95.9393 54.9052 96.2209C55.3408 96.5025 55.6698 96.9042 55.8922 97.4305C56.1146 97.9568 56.2165 98.5801 56.198 99.3096H55.3315V99.0095C55.3176 98.2061 55.1415 97.5967 54.8079 97.1858C54.4743 96.7749 53.9878 96.5718 53.353 96.5718C52.6858 96.5718 52.1715 96.7888 51.8147 97.2228C51.4579 97.6567 51.2818 98.2708 51.2818 99.0741C51.2818 99.8543 51.4579 100.459 51.8147 100.893C52.1715 101.322 52.6765 101.539 53.3298 101.539C53.7747 101.539 54.1639 101.438 54.4975 101.235C54.8311 101.027 55.0906 100.732 55.2852 100.348L56.0729 100.653C55.8273 101.193 55.4659 101.613 54.9886 101.909C54.5068 102.204 53.9646 102.352 53.3623 102.352ZM50.9807 99.3142V98.6078H55.7393V99.3142H50.9807Z" fill="white"/>
<path d="M57.4676 102.181V95.9762H58.2275V97.472L58.0792 97.2781C58.1487 97.0935 58.2367 96.9273 58.3526 96.7703C58.4638 96.6133 58.5842 96.4887 58.714 96.3871C58.8761 96.244 59.0661 96.1378 59.2793 96.0639C59.4924 95.9901 59.7102 95.9439 59.9326 95.93C60.1504 95.9162 60.3496 95.9347 60.5303 95.9808V96.7749C60.3033 96.7195 60.0577 96.7057 59.7889 96.7334C59.5202 96.7611 59.27 96.8719 59.0476 97.0565C58.8391 97.2181 58.6862 97.4074 58.5796 97.6336C58.4777 97.8599 58.4082 98.0953 58.3711 98.3446C58.3387 98.5939 58.3201 98.8432 58.3201 99.0879V102.186H57.4676V102.181Z" fill="white"/>
</g>
<defs>
<clipPath id="clip0_508_2558">
<rect width="71.875" height="83.375" fill="white" transform="translate(21.5625 21.5625)"/>
</clipPath>
</defs>
</svg>
