<svg width="115" height="115" viewBox="0 0 115 115" fill="none" xmlns="http://www.w3.org/2000/svg">
<circle opacity="0.2" cx="57.5" cy="57.5" r="57.5" fill="#060606"/>
<g clip-path="url(#clip0_415_21134)">
<path d="M57.6611 44.2823C52.1474 44.2823 47.6758 48.7531 47.6758 54.2658C47.6758 59.7786 52.1474 64.2494 57.6611 64.2494C63.1749 64.2494 67.6465 59.7786 67.6465 54.2658C67.6189 48.7255 63.1474 44.2823 57.6611 44.2823ZM57.6611 59.6606C54.6801 59.6606 52.2653 57.2463 52.2653 54.2658C52.2653 51.2853 54.6801 48.871 57.6611 48.871C60.6422 48.871 63.0569 51.2853 63.0569 54.2658C63.0569 57.2188 60.6422 59.6606 57.6611 59.6606Z" fill="white"/>
<path d="M62.1915 68.0948H53.1304V72.1174H62.1915V68.0948Z" fill="white"/>
<path d="M33.1599 55.0404C33.1009 55.6971 32.861 56.3223 32.4166 56.8571C32.0272 57.3053 31.4924 57.5727 30.8946 57.5727L30.8631 56.4717C31.221 56.4403 31.5474 56.2633 31.7559 55.9645C32.0233 55.6381 32.1727 55.2488 32.2042 54.832C32.2632 54.4742 32.2042 54.0889 32.0547 53.7586C31.9053 53.4912 31.6654 53.3103 31.3704 53.2828C31.221 53.2514 31.0715 53.2828 30.9221 53.3418C30.7451 53.4598 30.6232 53.6406 30.5328 53.8176C30.4148 54.0574 30.2339 54.4428 30.0254 54.95C29.8485 55.3983 29.6361 55.8151 29.4001 56.2319C29.2507 56.4992 29.0108 56.7076 28.7433 56.8571C28.5034 56.975 28.2085 57.0065 27.9371 56.975C27.5792 56.9436 27.2528 56.7981 26.9815 56.5582C26.714 56.2908 26.5331 55.9606 26.4466 55.6027C26.3286 55.1859 26.2971 54.7377 26.3561 54.2934C26.4151 53.849 26.5331 53.4283 26.7455 53.0115C26.9225 52.6851 27.1938 52.3863 27.5202 52.1779C27.8191 51.9695 28.177 51.8791 28.5624 51.8791L28.6214 52.98C28.295 52.98 27.9646 53.1295 27.7562 53.3693C27.5163 53.6682 27.3393 54.026 27.3079 54.4113C27.2489 54.7691 27.2764 55.127 27.3983 55.4533C27.4966 55.7286 27.7365 55.9055 28.004 55.937C28.1534 55.9684 28.3029 55.937 28.4209 55.8465C28.5703 55.6971 28.7197 55.5477 28.8102 55.3393C28.9282 55.0994 29.1091 54.7141 29.2861 54.2383C29.4355 53.79 29.6754 53.3732 29.9114 52.9564C30.0608 52.6891 30.3007 52.4807 30.5957 52.3312C30.8631 52.2133 31.162 52.1818 31.4609 52.2133C32.0272 52.2723 32.5345 52.5711 32.8334 53.0783C33.1913 53.6721 33.2818 54.3563 33.1599 55.0404Z" fill="white"/>
<path d="M34.7998 48.2181C34.7408 48.6074 34.6504 48.9613 34.5324 49.3191C34.4144 49.6455 34.2335 49.9443 33.9975 50.1841C33.7891 50.424 33.4902 50.5734 33.1638 50.6009C32.8964 50.6324 32.6289 50.6324 32.3576 50.542C32.0902 50.4515 31.8503 50.365 31.5238 50.2746L26.0376 48.3675L26.3955 47.3531L31.8188 49.2287C32.0862 49.3191 32.2671 49.3781 32.4441 49.4371C32.5935 49.496 32.7705 49.496 32.9514 49.4685C33.2503 49.4095 33.4863 49.2287 33.6082 48.9613C33.7576 48.6349 33.8756 48.2456 33.9346 47.8878L34.7998 48.2181ZM28.1259 50.4515L27.2922 50.1527L28.6922 46.0712L29.526 46.37L28.1259 50.4515Z" fill="white"/>
<path d="M35.2167 47.3533L29.585 44.2233L30.0333 43.3897L31.4058 44.1329L31.1384 44.1643C30.989 44.0149 30.8985 43.838 30.812 43.6571C30.7215 43.4802 30.6625 43.2993 30.6625 43.0909C30.6311 42.8825 30.6311 42.6741 30.6625 42.4342C30.694 42.2258 30.7805 42.0174 30.871 41.809C30.9614 41.6321 31.0794 41.4512 31.1974 41.3018L32.0626 41.7776C31.8856 41.9545 31.7637 42.1668 31.6733 42.4028C31.5828 42.6426 31.5238 42.91 31.5553 43.1774C31.5867 43.4172 31.6733 43.6532 31.7952 43.8616C31.9132 44.07 32.0941 44.2508 32.2711 44.3963C32.448 44.5457 32.6604 44.6952 32.8964 44.8131L35.728 46.3938L35.2167 47.3533Z" fill="white"/>
<path d="M39.0631 41.9582C38.7052 42.4065 38.1979 42.7328 37.6316 42.9137C37.0967 43.0631 36.5579 43.0631 36.0231 42.9452C35.4253 42.7682 34.8904 42.4694 34.4421 42.0526C33.9662 41.6633 33.6083 41.16 33.3684 40.5938C33.16 40.0866 33.101 39.5518 33.1915 38.9856C33.3094 38.4194 33.5493 37.8846 33.9347 37.4639C34.2926 37.0156 34.8 36.6892 35.3663 36.5084C35.9011 36.3589 36.4399 36.3314 36.9748 36.4769C38.1389 36.8347 39.1221 37.6998 39.6294 38.8008C39.8379 39.308 39.9283 39.8742 39.8379 40.409C39.7199 41.0067 39.4524 41.5414 39.0631 41.9582ZM38.3198 41.3016C38.7367 40.8848 38.9176 40.3185 38.7957 39.7523C38.6462 39.1547 38.2883 38.6199 37.8125 38.2306C37.3641 37.8138 36.7978 37.515 36.1725 37.456C35.6062 37.4245 35.0713 37.6959 34.7134 38.1716C34.446 38.4705 34.2651 38.8283 34.2061 39.2136C34.1746 39.5715 34.2376 39.9293 34.4145 40.2556C34.623 40.6449 34.8904 40.9713 35.2208 41.2387C35.6691 41.6869 36.2354 41.9543 36.8607 42.0133C37.4231 41.9897 37.9619 41.7498 38.3198 41.3016Z" fill="white"/>
<path d="M41.5957 39.0097L38.0208 33.6463L38.827 33.1391L39.7826 34.5704L39.8731 34.5114L42.4963 38.4159L41.5957 39.0097ZM45.4105 36.4774L43.621 33.7957C43.4716 33.5559 43.2632 33.32 43.0547 33.1116C42.8777 32.9032 42.6378 32.7537 42.3979 32.6358C42.158 32.5178 41.9221 32.4864 41.6546 32.4864C41.3558 32.5178 41.0883 32.6358 40.8484 32.7852C40.64 32.9346 40.4591 33.084 40.3411 33.2924C40.2231 33.4694 40.1327 33.7092 40.1012 33.9491C40.0697 34.2165 40.1012 34.4839 40.1916 34.7237C40.2821 35.0501 40.4315 35.3489 40.64 35.6163L39.9242 35.8247C39.5978 35.3764 39.3894 34.8417 39.3264 34.303C39.2674 33.8272 39.3264 33.3475 39.5349 32.9032C39.7748 32.4549 40.1012 32.0696 40.5495 31.8022C40.8484 31.5938 41.1748 31.4444 41.5327 31.3854C41.8316 31.3264 42.1305 31.3539 42.4255 31.4168C42.6929 31.4758 42.9603 31.5938 43.2002 31.7747C43.4401 31.9241 43.6486 32.1325 43.857 32.3409C44.034 32.5178 44.1834 32.7302 44.3329 32.9661L46.2993 35.9466L45.4105 36.4774Z" fill="white"/>
<path d="M49.7051 34.8375C49.1978 35.0144 48.6314 35.0459 48.0966 34.8964C47.5893 34.747 47.1409 34.4482 46.787 34.0628C45.9808 33.1388 45.5953 31.9749 45.6858 30.756C45.7448 30.2212 45.9257 29.714 46.2521 29.2972C46.5785 28.8804 47.0583 28.554 47.5617 28.4046C48.0691 28.2276 48.6354 28.1962 49.1702 28.3456C49.6776 28.495 50.0944 28.7939 50.4523 29.2107C51.1956 30.1347 51.585 31.3261 51.526 32.5175C51.4945 33.0523 51.3175 33.532 51.0186 33.9763C50.6883 34.3617 50.24 34.6566 49.7051 34.8375ZM49.5242 33.8544C49.8821 33.764 50.2085 33.5281 50.4484 33.2292C50.6568 32.9304 50.7473 32.5726 50.7748 32.2148C50.7748 31.798 50.7158 31.3497 50.5664 30.9644C50.4484 30.5476 50.24 30.1583 49.9686 29.8319C49.7602 29.5331 49.4613 29.3247 49.1348 29.2067C48.777 29.0888 48.3915 29.1163 48.0612 29.2382C47.7033 29.3561 47.3769 29.5645 47.137 29.8948C46.9286 30.1937 46.8106 30.5515 46.8106 30.9368C46.8106 31.7704 47.078 32.604 47.5853 33.2922C47.8252 33.591 48.1202 33.7994 48.4505 33.9174C48.7809 34.0039 49.1663 34.0039 49.5242 33.8544ZM50.6883 37.5191C50.3619 37.6371 50.0315 37.6686 49.7051 37.6686C49.3787 37.6686 49.0208 37.6096 48.7219 37.4916C48.3955 37.3736 48.0966 37.1928 47.8292 36.9568L48.6039 36.1822C48.8438 36.4221 49.1388 36.5715 49.4691 36.6305C49.768 36.6895 50.0944 36.6619 50.3933 36.54C50.7198 36.4496 51.0501 36.2727 51.2861 36.0053C51.4945 35.7654 51.6125 35.498 51.644 35.1992C51.6754 34.8099 51.6125 34.456 51.4945 34.0982L50.9597 32.431L51.0776 32.3996L49.5832 27.9209L50.4759 27.6221L52.5013 33.7915C52.5603 33.9685 52.5918 34.1179 52.6508 34.2673C52.6822 34.4167 52.7097 34.5937 52.7412 34.7431C52.8002 35.1599 52.7727 35.5767 52.6232 35.966C52.4738 36.3238 52.2339 36.6501 51.9389 36.89C51.522 37.1613 51.1327 37.4012 50.6883 37.5191Z" fill="white"/>
<path d="M58.5262 33.5241C57.9284 33.5241 57.3621 33.3472 56.8862 33.0484C56.4379 32.7495 56.08 32.3052 55.8716 31.8255C55.6317 31.2593 55.5452 30.6616 55.5452 30.0679C55.5452 29.4741 55.6946 28.845 55.962 28.3102C56.2019 27.8344 56.5874 27.4176 57.0357 27.1463C58.1093 26.5801 59.419 26.6391 60.4336 27.2957C60.9095 27.6221 61.2398 28.1293 61.3893 28.6956L60.3156 28.9944C60.1977 28.6366 59.9892 28.3377 59.6903 28.1018C59.3914 27.8934 59.0335 27.7755 58.6481 27.7755C57.8734 27.7165 57.1576 28.1647 56.8902 28.8764C56.7407 29.2657 56.6503 29.6825 56.6227 30.0993C56.5913 30.7245 56.7407 31.3222 57.0711 31.8569C57.3975 32.3052 57.9363 32.5726 58.5026 32.5411C58.8605 32.5726 59.2459 32.4821 59.5448 32.2737C59.8437 32.0653 60.0797 31.798 60.2016 31.4401L61.2752 31.739C61.0668 32.3052 60.6774 32.7535 60.2016 33.0798C59.7179 33.4376 59.124 33.5831 58.5262 33.5241Z" fill="white"/>
<path d="M64.4296 34.4797C63.8633 34.3303 63.356 34.0314 62.9706 33.6146C62.6127 33.1978 62.3728 32.6906 62.2862 32.1558C62.1958 31.5582 62.2273 30.933 62.4042 30.3392C62.5537 29.7415 62.8526 29.2068 63.2694 28.731C63.6273 28.3142 64.1032 28.0154 64.642 27.8659C65.2083 27.7165 65.7746 27.748 66.341 27.8974C66.9073 28.0468 67.4146 28.3457 67.8315 28.7625C68.1894 29.1793 68.4293 29.655 68.5158 30.2213C68.6062 30.8189 68.5748 31.4441 68.3978 32.0379C68.2483 32.6355 67.9495 33.1703 67.5326 33.6461C67.1747 34.0629 66.6988 34.3617 66.16 34.5111C65.5623 34.6566 64.9645 34.6291 64.4296 34.4797ZM64.697 33.4967C65.2319 33.7051 65.8611 33.6146 66.3056 33.2568C66.7814 32.8675 67.1118 32.3328 67.2612 31.7351C67.4697 31.1374 67.4697 30.5122 67.2612 29.9185C67.0528 29.3837 66.5769 28.9944 66.0106 28.8765C65.6212 28.7585 65.2358 28.7585 64.8465 28.8765C64.5201 28.9944 64.2212 29.2028 63.9813 29.5017C63.7414 29.828 63.5329 30.2173 63.4464 30.6341C63.238 31.2318 63.238 31.857 63.4464 32.4507C63.6824 32.9894 64.1307 33.3748 64.697 33.4967Z" fill="white"/>
<path d="M68.6885 35.7617L72.3263 30.0091C72.4168 29.8597 72.5033 29.7417 72.6252 29.5923C72.7432 29.4429 72.8651 29.3249 72.9831 29.203C73.1325 29.0851 73.282 29.0261 73.4589 28.9632C73.6359 28.9042 73.8483 28.9042 74.0567 28.9317C74.2337 28.9632 74.4146 29.0222 74.5641 29.1087C74.7135 29.1991 74.8629 29.2856 75.0124 29.376L75.6967 29.8243L75.2484 30.5675L74.5916 30.1507C74.3831 30.0012 74.1157 29.9423 73.8758 29.9737C73.6359 30.0327 73.4275 30.2136 73.3095 30.422L69.5852 36.324L68.6885 35.7617ZM70.7453 30.4849L71.2212 29.7417L74.4697 31.7982L73.9938 32.5414L70.7453 30.4849ZM71.878 37.7868L75.5158 32.0341C75.6062 31.8847 75.6928 31.7667 75.8147 31.6173C75.9327 31.4679 76.0546 31.3499 76.1726 31.228C76.322 31.1101 76.4715 31.0511 76.6484 30.9882C76.8254 30.9292 77.0378 30.9292 77.2462 30.9567C77.4232 30.9882 77.6041 31.0472 77.7535 31.1337C77.903 31.2241 78.0524 31.3106 78.2019 31.4011L78.8862 31.8493L78.4103 32.5925L77.785 32.1757C77.5766 32.0263 77.3091 31.9673 77.0692 31.9987C76.8293 32.0577 76.6209 32.2386 76.5029 32.447L72.7786 38.349L71.878 37.7868ZM73.9348 32.5138L74.4107 31.7707L77.6592 33.8272L77.2108 34.5703L73.9348 32.5138Z" fill="white"/>
<path d="M76.0234 41.7225C75.634 41.3057 75.3391 40.767 75.2171 40.2008C75.0992 39.6661 75.1582 39.0998 75.3351 38.5926C75.5436 38.0264 75.9014 37.5191 76.3773 37.1023C76.8257 36.6541 77.392 36.3592 77.9858 36.1469C78.5207 35.9974 79.0595 35.9974 79.5943 36.1469C80.1292 36.3238 80.6365 36.6541 80.9944 37.0709C81.4113 37.4877 81.6787 38.0264 81.7692 38.5926C81.8596 39.1588 81.7692 39.725 81.5017 40.2008C81.2028 40.7985 80.7584 41.3333 80.2511 41.7501L79.5353 40.944L79.8342 40.6766C80.4005 40.1418 80.727 39.6346 80.8174 39.1274C80.8764 38.5926 80.6994 38.0854 80.3101 37.6961C79.9522 37.2478 79.4174 37.0119 78.8196 37.0119C78.2847 37.0434 77.7184 37.3107 77.1206 37.8455C76.6133 38.2348 76.2869 38.801 76.1649 39.4262C76.106 39.9924 76.2829 40.5272 76.6723 40.9165C76.9397 41.2153 77.2701 41.4237 77.6279 41.5417C77.9858 41.6321 78.3712 41.6321 78.7606 41.5102L79.1775 42.4932C78.6111 42.7016 78.0134 42.7016 77.447 42.5522C76.9161 42.4972 76.4088 42.1669 76.0234 41.7225ZM76.7077 37.8455L77.333 37.2793L80.5539 40.826L79.9286 41.3922L76.7077 37.8455Z" fill="white"/>
<path d="M79.6572 47.0264C79.3898 46.5192 79.2404 45.9529 79.2679 45.3592C79.2994 44.8244 79.4763 44.2857 79.8027 43.8375C80.1606 43.3303 80.6365 42.9449 81.2028 42.6736C81.7691 42.3748 82.3669 42.1978 83.0198 42.1978C83.5546 42.1978 84.0934 42.3158 84.5693 42.6146C85.0451 42.9135 85.4345 43.3578 85.7019 43.865C85.9694 44.3723 86.1188 44.966 86.0598 45.5322C86.0008 46.0984 85.7609 46.6057 85.403 47.0225C84.9547 47.5297 84.3884 47.9151 83.7945 48.1864L83.2872 47.2309L83.6136 47.0539C84.2979 46.6961 84.7777 46.2793 84.9862 45.8035C85.1946 45.3277 85.1631 44.7615 84.8682 44.3133C84.6283 43.806 84.1839 43.4207 83.6175 43.2713C83.0827 43.1533 82.4534 43.2713 81.7691 43.6605C81.2028 43.9004 80.7269 44.3447 80.4281 44.9109C80.2196 45.4182 80.2511 46.0119 80.546 46.4916C80.723 46.8495 80.9944 47.1483 81.3208 47.3567C81.6472 47.5336 82.0366 47.6555 82.3944 47.6241L82.5439 48.6975C81.9461 48.729 81.3523 48.6071 80.8449 48.2807C80.314 48.0094 79.9286 47.5612 79.6572 47.0264ZM81.3287 43.4797L82.072 43.0904L84.2468 47.3213L83.472 47.7106L81.3287 43.4797Z" fill="white"/>
<path d="M79.1538 52.7752L88.3919 51.6743L88.5099 52.6297L83.8024 53.196L83.8338 53.3139L79.3033 53.8487L79.1538 52.7752ZM82.1624 55.3979C82.0719 54.8632 82.1624 54.2969 82.4298 53.8172C82.6972 53.369 83.0551 52.9836 83.531 52.7438C84.6046 52.1776 85.8277 52.0281 86.9879 52.327C87.4952 52.4449 87.9436 52.7438 88.2975 53.1016C88.6554 53.5184 88.8638 54.0256 88.9228 54.5604C89.0133 55.0952 88.9228 55.6614 88.6554 56.1411C88.4155 56.6169 88.0301 57.0061 87.5818 57.2735C86.5396 57.8712 85.285 58.0167 84.1248 57.6903C83.6175 57.5409 83.1416 57.2421 82.7838 56.8567C82.4298 56.4714 82.2214 55.9641 82.1624 55.3979ZM83.1181 55.162C83.1495 55.5513 83.295 55.8776 83.5664 56.1765C83.8338 56.4439 84.1642 56.6247 84.5221 56.6837C85.3558 56.8607 86.221 56.7427 86.9643 56.3849C87.2907 56.2079 87.5621 55.9681 87.7391 55.6417C87.916 55.3154 87.979 54.8986 87.916 54.5407C87.8846 54.1829 87.7391 53.8251 87.4992 53.5577C87.2593 53.2903 86.9329 53.1095 86.575 53.0505C85.7412 52.8735 84.8445 52.9915 84.0698 53.3493C83.7434 53.4987 83.472 53.7661 83.295 54.065C83.1181 54.3874 83.0551 54.7727 83.1181 55.162Z" fill="white"/>
<path d="M82.1938 60.8521C82.2253 60.4353 82.3708 60.046 82.6107 59.6882C82.8192 59.4208 83.0866 59.1809 83.4169 59.063C84.0147 58.8231 84.699 58.9136 85.2339 59.2399C85.4738 59.3893 85.6508 59.6292 85.7688 59.8651C85.9182 60.1325 86.0086 60.4313 86.0362 60.7577C86.0676 61.1155 86.0952 61.4419 86.1266 61.7997C86.1266 62.189 86.1581 62.5743 86.1266 62.9636V64.0646L85.9497 63.6478C86.398 63.7382 86.8424 63.6792 87.2317 63.4708C87.5306 63.2624 87.7391 62.8732 87.7981 62.3069C87.8571 61.9491 87.7981 61.5913 87.6801 61.2649C87.5306 60.9386 87.2317 60.6673 86.9053 60.5493L87.3537 59.5938C87.861 59.8022 88.2779 60.1915 88.5453 60.6673C88.8127 61.2335 88.9032 61.8587 88.7852 62.4839C88.7262 62.9911 88.5453 63.4984 88.2779 63.9427C88.038 64.332 87.6526 64.5993 87.2042 64.7173C86.9958 64.7763 86.7559 64.8077 86.5474 64.8077C86.3075 64.8077 86.0716 64.7763 85.8317 64.7488L81.8674 64.214L81.9854 63.29L83.5074 63.4984L83.3304 63.7068C82.8821 63.4394 82.5242 63.0226 82.2882 62.5429C82.1309 61.957 82.0719 61.3908 82.1938 60.8521ZM83.0551 61.1194C82.9961 61.4458 83.0237 61.8036 83.1141 62.1339C83.2046 62.4013 83.354 62.6687 83.5625 62.8771C83.7394 63.0855 83.9793 63.2349 84.2468 63.2939C84.4552 63.3843 84.6636 63.4433 84.9035 63.4708C85.1434 63.4984 85.3204 63.5298 85.4699 63.5613L85.2614 63.9191C85.2614 63.5613 85.2614 63.2349 85.2614 62.8771C85.2614 62.5193 85.2614 62.2204 85.2614 61.9216C85.2614 61.6542 85.23 61.3868 85.2024 61.1155C85.171 60.9386 85.112 60.7577 85.053 60.6083C84.994 60.4589 84.9035 60.3094 84.7541 60.1915C84.6046 60.0735 84.4552 60.0145 84.2782 59.9831C84.1012 59.9516 83.9203 59.9831 83.7709 60.0421C83.5939 60.1325 83.4445 60.2505 83.3226 60.3999C83.177 60.6161 83.0866 60.8835 83.0551 61.1194Z" fill="white"/>
<path d="M81.5056 65.2639L87.5857 67.4383L87.2592 68.3309L85.8002 67.8236L86.0401 67.7332C86.1895 67.8826 86.339 68.032 86.457 68.1815C86.5749 68.3309 86.6654 68.5078 86.7244 68.6887C86.7834 68.8971 86.8148 69.1055 86.8148 69.3139C86.8148 69.5223 86.7834 69.7621 86.7244 69.9705C86.6654 70.1789 86.5749 70.3598 86.4845 70.5368L85.5288 70.2104C85.6783 70.002 85.7687 69.7622 85.8277 69.5262C85.8867 69.2588 85.8867 68.9915 85.7963 68.7201C85.7373 68.4803 85.6193 68.2719 85.4384 68.095C85.2889 67.918 85.0805 67.7686 84.8721 67.6467C84.6636 67.5287 84.4237 67.4068 84.1877 67.3203L81.1477 66.2193L81.5056 65.2639Z" fill="white"/>
<path d="M78.2571 72.2082C78.3751 71.8504 78.5245 71.4925 78.7329 71.1662C78.9099 70.8673 79.1498 70.6 79.4172 70.423C79.6847 70.2461 79.9836 70.1556 80.31 70.1556C80.5774 70.1556 80.8449 70.2461 81.0848 70.364C81.3247 70.482 81.5606 70.6314 81.8595 70.7808L86.8974 73.6434L86.3901 74.5674L81.3836 71.7049C81.1437 71.5869 80.9668 71.465 80.7859 71.3785C80.6364 71.2881 80.4594 71.2606 80.31 71.2291C80.0111 71.2291 79.7437 71.3785 79.5942 71.5869C79.3858 71.8858 79.2049 72.2436 79.0869 72.6014L78.2571 72.2082ZM85.2338 71.2252L86.0086 71.6734L83.8613 75.4286L83.0865 74.9803L85.2338 71.2252Z" fill="white"/>
<path d="M74.7096 76.3203L77.0929 78.4947C77.3013 78.7031 77.5412 78.884 77.8086 79.0295C78.0485 79.1789 78.2845 79.2693 78.5519 79.3283C78.7918 79.3873 79.0593 79.3873 79.2952 79.2968C79.5627 79.2064 79.8301 79.0295 80.011 78.7896C80.188 78.6127 80.3099 78.4003 80.4003 78.1644C80.4908 77.956 80.5183 77.7161 80.4908 77.4802C80.4593 77.2128 80.3728 76.973 80.2234 76.7371C80.0464 76.4697 79.834 76.2023 79.5981 75.9939L80.2234 75.6361C80.6402 75.9939 80.9667 76.4697 81.179 76.9769C81.356 77.4252 81.3875 77.901 81.297 78.3767C81.179 78.884 80.9391 79.3322 80.5812 79.6861C80.3413 79.9535 80.0464 80.1934 79.716 80.3428C79.4486 80.4607 79.1497 80.5197 78.8233 80.5197C78.5244 80.5197 78.257 80.4607 77.9895 80.3703C77.7221 80.2799 77.4547 80.1619 77.2148 79.981C77.0064 79.8316 76.7979 79.6822 76.5895 79.5052L73.9663 77.0909L74.7096 76.3203ZM77.8126 72.9505L82.5516 77.3033L81.8948 78.0189L80.6442 76.855L80.5537 76.9455L77.0653 73.7565L77.8126 72.9505Z" fill="white"/>
<path d="M70.777 79.0881C71.2528 78.7617 71.8192 78.5809 72.3855 78.5533C72.9203 78.5533 73.4591 78.6713 73.935 78.9426C74.4699 79.269 74.9182 79.6858 75.2171 80.2245C75.575 80.7592 75.7834 81.3569 75.8739 81.9821C75.9328 82.5169 75.8424 83.0831 75.6064 83.5628C75.339 84.07 74.9497 84.4868 74.4423 84.7857C73.9665 85.112 73.4001 85.2929 72.8024 85.2929C72.236 85.2929 71.7012 85.0845 71.2528 84.7582C70.718 84.3689 70.2696 83.8341 69.9432 83.2364L70.836 82.6702L71.0444 82.9966C71.4927 83.6532 71.9371 84.07 72.4169 84.247C72.9243 84.3964 73.4906 84.306 73.9075 83.9796C74.4148 83.7122 74.7412 83.205 74.8317 82.6388C74.8907 82.104 74.7137 81.5063 74.2968 80.8222C73.9979 80.2559 73.4906 79.8391 72.9243 79.5993C72.3894 79.4223 71.8231 79.5403 71.3433 79.8667C71.0169 80.0751 70.7455 80.3739 70.5685 80.7003C70.4191 81.0581 70.3601 81.4159 70.3916 81.8012L69.3494 82.0686C69.2589 81.4709 69.3494 80.8772 69.5893 80.3385C69.8528 79.8352 70.2696 79.3869 70.777 79.0881ZM74.4738 80.4014L74.9221 81.1171L70.8989 83.6808L70.4506 82.9651L74.4738 80.4014Z" fill="white"/>
<path d="M67.5284 81.0269L69.7347 87.0784L68.842 87.4047L68.3071 85.9459L68.5156 86.0954C68.5156 86.3038 68.4841 86.5122 68.4251 86.7206C68.3661 86.8975 68.3071 87.0784 68.1852 87.2553C68.0672 87.4323 67.9178 87.6131 67.7683 87.7311C67.5914 87.8805 67.4104 87.971 67.202 88.0575C67.025 88.1479 66.8127 88.2069 66.6042 88.2344L66.2463 87.3104C66.4862 87.2789 66.7222 87.2199 66.9621 87.102C67.202 86.984 67.4104 86.8031 67.5599 86.5947C67.7093 86.3863 67.7998 86.1779 67.8273 85.9106C67.8588 85.6707 67.8588 85.4348 67.8273 85.1949C67.7959 84.9551 67.7093 84.7191 67.6189 84.4793L66.5177 81.4398L67.5284 81.0269Z" fill="white"/>
</g>
<defs>
<clipPath id="clip0_415_21134">
<rect width="62.9245" height="61.478" fill="white" transform="translate(26.0376 26.761)"/>
</clipPath>
</defs>
</svg>
